<svg width="329" height="323" viewBox="0 0 329 323" fill="none" xmlns="http://www.w3.org/2000/svg">
    <g clip-path="url(#clip0_564_2)">
        <path d="M0 154.826H28.8044C28.8044 154.826 31.0783 30.8522 155.379 31.4881C280.735 32.1313 277.033 171.16 277.033 171.16V232.263H305.437V154.826C305.437 154.826 306.101 0 153.214 0C0.325891 0 0 154.826 0 154.826Z" fill="#727575"/>
        <path d="M230.446 119.834L154.495 196.015L128.561 168.69V130.995L152.334 152.514L215.933 93.2015C200.521 77.808 179.248 68.2886 155.754 68.2886C108.705 68.2886 70.5644 106.459 70.5644 153.543C70.5644 200.628 108.705 238.798 155.754 238.798C202.802 238.798 240.943 200.628 240.943 153.543C240.943 140.493 238.012 128.127 232.772 117.067L230.446 119.832V119.834Z" fill="#FC7D35"/>
        <path d="M219.694 271.674V270.913C219.694 266.556 219.058 262.473 213.913 262.473C210.6 262.473 208.485 263.787 208.485 267.315C208.485 271.257 211.023 272.779 214.125 274.716C217.367 276.722 223.36 280.596 226.11 283.225C229.494 286.475 230.551 289.588 230.551 294.085C230.551 303.907 223.923 309.025 214.264 309.025C202.42 309.025 198.189 302.523 198.189 293.255V289.45H208.06V293.393C208.06 297.959 209.682 301.209 214.264 301.209C218.424 301.209 220.398 299.066 220.398 295.123C220.398 292.079 218.988 290.004 216.449 288.276C211.302 284.333 204.886 281.498 200.868 276.311C199.246 273.959 198.33 271.123 198.33 268.357C198.33 259.502 203.407 254.661 213.84 254.661C229.562 254.661 229.139 266.557 229.209 271.676H219.692L219.694 271.674Z" fill="#727575"/>
        <path d="M234.29 277.691C234.713 264.479 235.77 254.657 251.563 254.657C260.023 254.726 265.875 256.871 268.131 265.862C268.623 267.936 268.554 270.081 268.623 272.156H258.752C258.611 266.9 258.258 262.749 251.561 262.472C244.863 262.472 244.441 269.181 244.441 273.607V289.93C244.441 294.219 244.794 301.205 251.561 301.205C256.92 301.205 258.823 295.878 258.823 288.685V287.51H251.985V279.902H268.411V307.777H261.008V301.829H260.867C258.894 307.224 255.157 308.746 251.561 309.022C235.345 309.022 234.288 298.922 234.288 285.089V277.688L234.29 277.691Z" fill="#727575"/>
        <path d="M294.922 271.674V270.913C294.922 266.555 294.288 262.473 289.141 262.473C285.828 262.473 283.711 263.787 283.711 267.315C283.711 271.257 286.25 272.779 289.351 274.716C292.593 276.722 298.586 280.596 301.336 283.224C304.72 286.475 305.777 289.588 305.777 294.085C305.777 303.907 299.149 309.025 289.49 309.025C277.646 309.025 273.415 302.522 273.415 293.255V289.45H283.286V293.393C283.286 297.958 284.908 301.209 289.49 301.209C293.649 301.209 295.624 299.065 295.624 295.123C295.624 292.079 294.214 290.004 291.676 288.276C286.528 284.333 280.112 281.498 276.095 276.31C274.473 273.959 273.557 271.123 273.557 268.356C273.557 259.502 278.633 254.661 289.067 254.661C304.789 254.661 304.367 266.557 304.436 271.676H294.918L294.922 271.674Z" fill="#727575"/>
        <path d="M53.6366 51.0434L53.452 50.8495C52.4001 49.7407 51.2559 48.8529 49.9704 50.0722C49.1431 50.8586 48.933 51.6938 49.7858 52.5925C50.7381 53.5963 51.7393 53.3807 52.9812 53.1379C54.2757 52.8788 56.7053 52.4439 58.027 52.4602C59.6564 52.4856 60.6721 53.0255 61.7583 54.1706C64.13 56.671 63.7136 59.5446 61.3039 61.8347C58.3492 64.6431 55.7223 63.9927 53.4845 61.6336L52.5648 60.6661L55.0271 58.3252L55.9794 59.329C57.0819 60.4904 58.2714 60.9343 59.4156 59.8472C60.453 58.8615 60.4277 57.8469 59.4753 56.8431C58.7403 56.0695 57.8876 55.8756 56.8357 56.0368C54.5998 56.2543 52.3132 57.0533 50.0573 56.6873C49.0851 56.4735 48.1708 55.9698 47.5028 55.265C45.3646 53.011 45.4606 50.5759 48.064 48.1009C51.9873 44.3722 54.7555 47.4994 56.0083 48.7858L53.633 51.0434H53.6366Z" fill="white"/>
        <path d="M61.1283 43.6764C61.9665 44.162 62.7613 44.7128 63.471 45.3904L63.509 45.3614C62.8374 44.1004 62.5766 43.0115 62.2779 41.9533L61.0323 37.6955L63.9653 35.418L66.5832 46.6315L71.3284 52.7501L68.6453 54.8338L63.9001 48.7152L53.7507 43.3521L56.6836 41.0746L61.1283 43.6764Z" fill="white"/>
        <path d="M74.5275 35.2622L74.3845 35.0357C73.5698 33.7421 72.6211 32.6459 71.1238 33.5917C70.1589 34.2004 69.7895 34.9795 70.4485 36.0268C71.1854 37.1972 72.2101 37.1828 73.4738 37.1882C74.7936 37.1882 77.2613 37.2389 78.554 37.5143C80.1472 37.8586 81.0379 38.5887 81.878 39.9223C83.7156 42.8393 82.7434 45.5752 79.9317 47.349C76.4846 49.5232 74.0369 48.3709 72.3024 45.6187L71.5909 44.4899L74.4641 42.6781L75.201 43.8485C76.0555 45.2038 77.1346 45.8724 78.4689 45.0299C79.6801 44.2653 79.8539 43.2669 79.1152 42.0965C78.5467 41.1924 77.7483 40.8354 76.6856 40.7883C74.4496 40.5618 72.0526 40.8989 69.9126 40.0962C69.0002 39.6958 68.2036 39.0218 67.6858 38.201C66.0292 35.572 66.6013 33.2021 69.6393 31.2852C74.2161 28.3989 76.318 32.0081 77.2957 33.5156L74.5257 35.264L74.5275 35.2622Z" fill="white"/>
        <path d="M76.1406 27.7829L86.2248 22.6155L87.4415 24.9926L83.9219 26.7972L90.999 40.6289L87.9756 42.178L80.8985 28.3464L77.3572 30.1618L76.1406 27.7847V27.7829Z" fill="white"/>
        <path d="M94.8952 38.7047L87.9321 21.8817L96.7635 18.2199L97.7846 20.6877L92.0926 23.0485L93.8469 27.2882L99.0918 25.114L100.113 27.5818L94.868 29.756L97.0134 34.9379L102.705 32.577L103.727 35.0448L94.897 38.7065L94.8952 38.7047Z" fill="white"/>
        <path d="M107.896 33.5971L104.644 34.5791L99.3869 17.1473L104.567 15.5819L108.749 23.1446C109.428 24.3857 110.02 25.6775 110.566 26.9839L110.614 26.9694C110.257 25.201 110.023 24.0034 109.911 22.7949L109.212 14.1795L114.368 12.6213L119.628 30.0531L116.376 31.0352L114.721 25.5507C113.677 22.0882 112.701 18.6041 111.866 15.0764L111.819 15.0909L113.125 32.0172L111.151 32.6133L102.948 17.7706L102.832 17.805C104.085 21.2041 105.2 24.6466 106.245 28.1108L107.9 33.5953L107.896 33.5971Z" fill="white"/>
        <path d="M135.411 20.6007C135.444 20.9395 135.48 21.3037 135.513 21.6425C135.9 24.951 135.223 27.6506 131.492 28.2811C125.99 29.2124 125.041 25.7772 124.232 20.9903L123.799 18.4283C123.171 13.8316 122.955 10.371 128.313 9.4651C131.311 9.0067 133.244 10.2551 134.001 13.279C134.113 13.6541 134.198 14.0092 134.264 14.3915L134.303 14.6307L131.003 15.1887C130.664 14.0636 130.422 11.8893 128.771 12.1684C126.498 12.5525 126.746 14.8988 127.005 16.4317L127.96 22.081C128.209 23.5649 128.738 25.962 131.035 25.5742C132.877 25.2626 132.16 22.331 132.038 21.1696L135.411 20.5989V20.6007Z" fill="white"/>
        <path d="M137.615 26.8842L135.788 8.76753L145.298 7.80725L145.566 10.4652L139.436 11.0849L139.896 15.6507L145.545 15.08L145.812 17.738L140.164 18.3087L140.727 23.8892L146.857 23.2696L147.125 25.9275L137.615 26.8878V26.8842Z" fill="white"/>
        <path d="M151.349 17.883L151.658 25.7192L148.264 25.8533L147.543 7.65869L153.967 7.40322C156.9 7.28726 159.17 8.21674 159.304 11.565C159.384 13.5544 158.956 15.6616 156.69 16.0675V16.1164C158.714 16.303 159.371 17.5659 159.44 19.3125L159.471 20.088C159.53 21.6172 159.699 24.623 160.396 25.0325L160.408 25.3731L156.675 25.5217C156.299 24.5886 156.208 22.9398 156.161 21.7277L156.128 20.9269C156.06 19.8126 156.023 18.2834 154.847 17.9899C154.063 17.8014 153.237 17.8105 152.413 17.8431L151.954 17.8612L151.347 17.8848L151.349 17.883ZM151.242 15.2141L153.909 15.109C155.02 14.9912 155.864 14.2303 155.794 12.4094C155.712 10.371 154.85 10.0648 153.565 10.092L151.043 10.1917L151.242 15.2141Z" fill="white"/>
        <path d="M161.386 7.22746L172.694 7.92502L172.529 10.5902L168.583 10.3456L167.627 25.8551L164.237 25.6449L165.193 10.1355L161.223 9.89088L161.388 7.22565L161.386 7.22746Z" fill="white"/>
        <path d="M172.118 26.2917L174.497 8.2403L177.865 8.6842L175.486 26.7356L172.118 26.2917Z" fill="white"/>
        <path d="M177.412 26.9675L181.037 9.12265L190.475 11.0432L189.942 13.6595L183.832 12.4166L182.914 16.9372L188.644 18.1022L188.112 20.7203L182.382 19.5553L180.74 27.6452L177.412 26.9675Z" fill="white"/>
        <path d="M187.694 29.2197L192.539 11.6665L195.812 12.5724L190.967 30.1238L187.694 29.2197Z" fill="white"/>
        <path d="M205.047 28.0746C204.909 28.3862 204.765 28.7214 204.627 29.0331C203.349 32.1078 201.441 34.1316 197.876 32.8579C192.622 30.979 193.471 27.5184 195.104 22.9453L195.978 20.4993C197.675 16.1816 199.178 13.058 204.294 14.888C207.133 15.9551 208.21 17.9898 207.393 20.9975C207.308 21.3798 207.209 21.7313 207.078 22.0973L206.997 22.3256L203.845 21.1986C204.1 20.0517 204.949 18.0351 203.372 17.4717C201.202 16.6944 200.273 18.8632 199.75 20.3271L197.823 25.7228C197.316 27.1397 196.607 29.4896 198.799 30.2742C200.557 30.9029 201.365 27.9949 201.826 26.9223L205.047 28.0746Z" fill="white"/>
        <path d="M202.57 34.012L214.288 19.4176L218.432 21.3834L214.365 39.607L211.078 38.047L212.24 33.4938L208.644 31.7889L205.86 35.572L202.572 34.012H202.57ZM210.268 29.6038L212.899 30.8521L214.279 25.7844C214.489 24.9437 214.776 24.1664 215.052 23.3565C215.205 22.9724 215.339 22.5792 215.461 22.2078L215.417 22.1879C215.207 22.5176 214.986 22.871 214.787 23.2333C214.336 23.9599 213.916 24.6737 213.4 25.3695L210.267 29.6056L210.268 29.6038Z" fill="white"/>
        <path d="M222.748 23.5142L232.504 29.2758L231.148 31.5751L227.743 29.5639L219.853 42.9462L216.927 41.2195L224.817 27.8372L221.39 25.8134L222.746 23.5142H222.748Z" fill="white"/>
        <path d="M223.686 45.3777L233.889 30.3013L236.701 32.2074L226.497 47.2838L223.686 45.3777Z" fill="white"/>
        <path d="M234.429 39.8262C237.405 36.2696 239.819 33.7819 244.093 37.1411C248.368 40.5003 246.526 43.4373 243.778 47.1733L242.174 49.2171C239.178 53.0364 236.703 55.5984 232.314 52.1504C227.926 48.7007 229.827 45.6894 232.823 41.87L234.427 39.8262H234.429ZM234.525 45.3669C233.596 46.55 232.179 48.5539 234.009 49.9943C235.917 51.4945 237.48 49.5414 238.559 48.168L241.586 44.3106C242.545 43.0876 244.271 40.7702 242.4 39.3008C240.588 37.8767 239.02 39.6378 238.061 40.8608L237.641 41.3953L234.525 45.3669Z" fill="white"/>
        <path d="M256.822 48.9163L259.279 51.2626L246.715 64.433L244.153 61.9851L246.713 55.4697C247.555 53.2865 248.552 51.1847 249.95 48.5594L249.916 48.5249C248.965 49.6972 247.797 51.1322 246.593 52.5346C245.408 53.9188 244.204 55.2868 243.199 56.3394L240.836 58.8162L238.379 56.4699L250.944 43.2996L253.488 45.7311L250.826 52.3534C250.001 54.4841 249.036 56.5514 247.589 59.2638L247.624 59.2964C248.675 58.019 249.811 56.6529 250.946 55.3212C252.083 53.9895 253.236 52.6741 254.358 51.4982L256.821 48.9163H256.822Z" fill="white"/>
        <path d="M0.836426 163.813L26.8889 162.824L27.0736 167.69L1.02109 168.679L0.836426 163.813Z" fill="#FC7D35"/>
        <path d="M20.5215 180.621L20.8999 180.569C23.0688 180.266 25.0567 179.674 24.7073 177.157C24.481 175.537 23.6844 174.595 21.9282 174.84C19.9657 175.113 19.3809 176.46 18.6278 178.11C17.8511 179.835 16.3303 183.031 15.2096 184.558C13.821 186.437 12.3455 187.171 10.1078 187.483C5.21953 188.164 2.22141 185.281 1.56241 180.562C0.756752 174.773 3.70418 172.254 8.31722 171.611L10.211 171.346L10.8826 176.17L8.92011 176.443C6.64798 176.76 5.13987 177.779 5.45127 180.018C5.7337 182.051 6.93584 182.866 8.89838 182.593C10.4137 182.381 11.3497 181.549 12.0377 180.188C13.649 177.4 14.6249 174.068 16.9332 171.743C17.9941 170.787 19.3429 170.143 20.7189 169.951C25.1255 169.337 27.881 171.481 28.5907 176.581C29.6607 184.263 23.7097 184.883 21.1679 185.272L20.5197 180.621H20.5215Z" fill="#FC7D35"/>
        <path d="M18.6785 188.445C25.1038 186.762 29.9848 185.861 32.1936 193.333C34.4023 200.805 29.8164 202.706 23.5088 204.791L19.9422 205.848C13.2761 207.821 8.26111 208.761 5.99442 201.088C3.72773 193.415 8.44578 191.474 15.1119 189.501L18.6785 188.445ZM14.1976 194.995C12.1301 195.607 8.8133 196.769 9.76017 199.972C10.7451 203.307 14.1886 202.325 16.5892 201.615L23.3223 199.622C25.455 198.992 29.3928 197.716 28.426 194.448C27.49 191.279 24.1968 192.036 22.064 192.666L21.1298 192.942L14.1976 194.993V194.995Z" fill="#FC7D35"/>
        <path d="M29.1737 228.19C21.816 232.049 18.7473 230.989 16.3593 226.428C14.6321 223.131 14.8512 219.953 18.3001 218.145L18.5771 218L20.6754 222.006C19.953 222.424 18.9229 223.082 19.7467 224.653L19.8444 224.838C21.119 227.271 23.9143 225.492 25.3337 224.825L26.8111 224.05C25.7012 223.729 24.5462 223.47 23.4961 221.468C21.5752 217.8 23.2463 214.921 27.9879 212.434C33.7759 209.397 37.5054 209.249 40.1197 214.24C42.7503 219.263 40.2917 222.359 35.0577 225.106L34.7191 225.283L29.1773 228.191L29.1737 228.19ZM33.8411 220.241C36.0878 219.062 37.7462 217.956 36.8265 216.201L36.6817 215.923C35.6823 214.092 34.1851 214.68 32.0614 215.795L29.7223 217.023C28.1834 217.831 26.4779 218.922 27.4954 220.862C28.6088 222.988 30.8556 221.81 32.7657 220.808L33.8429 220.243L33.8411 220.241Z" fill="#FC7D35"/>
        <path d="M37.3968 224.986C41.9483 221.848 45.0496 222.919 47.5553 226.557C50.041 230.166 49.936 233.449 45.3864 236.588L35.7402 243.239C31.1888 246.377 28.0585 245.326 25.5528 241.688C23.067 238.079 23.1992 234.776 27.7507 231.638L37.3968 224.984V224.986ZM30.0826 235.944C28.0223 237.365 28.0096 238.514 28.6813 239.488C29.3711 240.49 30.4881 240.947 32.5774 239.506L43.0255 232.301C45.0858 230.88 45.0587 229.673 44.3671 228.672C43.6972 227.697 42.62 227.3 40.5886 228.701L40.1596 228.996L30.0844 235.944H30.0826Z" fill="#FC7D35"/>
        <path d="M46.1304 237.533C50.2854 233.886 53.4918 234.589 56.4012 237.91C59.2889 241.206 59.5677 244.478 55.4127 248.125L46.6048 255.857C42.4498 259.504 39.2181 258.824 36.3069 255.501C33.4192 252.206 33.1658 248.91 37.3226 245.264L46.1304 237.533ZM40.1415 249.269C38.2604 250.921 38.3817 252.063 39.162 252.952C39.964 253.867 41.1263 254.19 43.0328 252.515L52.5721 244.143C54.4531 242.491 54.2847 241.297 53.4827 240.382C52.7042 239.492 51.5872 239.222 49.7333 240.851L49.3404 241.195L40.1415 249.269Z" fill="#FC7D35"/>
        <path d="M60.0927 253.314L55.7476 249.357L58.0867 246.785C60.6051 249.029 63.2954 250.258 66.4257 248.261L69.0744 250.673L51.5292 269.973L47.9301 266.695L60.0945 253.313L60.0927 253.314Z" fill="#FC7D35"/>
        <path d="M162.416 310.225H329" stroke="#EC7C3A" stroke-width="8.5" stroke-linejoin="round"/>
        <path d="M307.126 323V244.319" stroke="#EC7C3A" stroke-width="8.5" stroke-linejoin="round"/>
    </g>
    <defs>
        <clipPath id="clip0_564_2">
            <rect width="329" height="323" fill="white"/>
        </clipPath>
    </defs>
</svg>
