<svg width="53" height="52" viewBox="0 0 53 52" fill="none" xmlns="http://www.w3.org/2000/svg">
<rect width="53" height="52" rx="10" fill="#33C7AC" fill-opacity="0.16"/>
<g opacity="0.9">
<path d="M19.0014 32.3315C19.0014 32.6851 18.8609 33.0242 18.6109 33.2742C18.3609 33.5243 18.0218 33.6647 17.6682 33.6647C17.3146 33.6647 16.9755 33.5243 16.7255 33.2742C16.4754 33.0242 16.335 32.6851 16.335 32.3315C16.335 31.9779 16.4754 31.6388 16.7255 31.3888C16.9755 31.1387 17.3146 30.9983 17.6682 30.9983C18.0218 30.9983 18.3609 31.1387 18.6109 31.3888C18.8609 31.6388 19.0014 31.9779 19.0014 32.3315ZM23.0011 17.666C22.6475 17.666 22.3084 17.8065 22.0584 18.0565C21.8083 18.3065 21.6679 18.6456 21.6679 18.9992C21.6679 19.3528 21.8083 19.6919 22.0584 19.942C22.3084 20.192 22.6475 20.3325 23.0011 20.3325H36.3334C36.6869 20.3325 37.0261 20.192 37.2761 19.942C37.5261 19.6919 37.6666 19.3528 37.6666 18.9992C37.6666 18.6456 37.5261 18.3065 37.2761 18.0565C37.0261 17.8065 36.6869 17.666 36.3334 17.666H23.0011ZM19.0014 18.9992C19.0014 19.3528 18.8609 19.6919 18.6109 19.942C18.3609 20.192 18.0218 20.3325 17.6682 20.3325C17.3146 20.3325 16.9755 20.192 16.7255 19.942C16.4754 19.6919 16.335 19.3528 16.335 18.9992C16.335 18.6456 16.4754 18.3065 16.7255 18.0565C16.9755 17.8065 17.3146 17.666 17.6682 17.666C18.0218 17.666 18.3609 17.8065 18.6109 18.0565C18.8609 18.3065 19.0014 18.6456 19.0014 18.9992ZM33.6669 28.3318C33.6669 27.9782 33.5264 27.6391 33.2764 27.3891C33.0264 27.1391 32.6873 26.9986 32.3337 26.9986C31.9801 26.9986 31.641 27.1391 31.3909 27.3891C31.1409 27.6391 31.0005 27.9782 31.0005 28.3318V32.3315C31.0003 32.5618 31.0597 32.7882 31.173 32.9887C31.2864 33.1891 31.4497 33.3568 31.6471 33.4754L34.9801 35.4753C35.2833 35.6574 35.6465 35.7115 35.9896 35.6259C36.3328 35.5403 36.6279 35.3218 36.81 35.0186C36.9921 34.7154 37.0463 34.3523 36.9606 34.0091C36.875 33.666 36.6566 33.3709 36.3534 33.1888L33.6669 31.5756V28.3318Z" fill="#33C7AC"/>
<path fill-rule="evenodd" clip-rule="evenodd" d="M19.0012 11C17.2826 10.9996 15.6096 11.5527 14.2299 12.5774C12.8501 13.6021 11.8371 15.0439 11.3408 16.6893C10.8445 18.3346 10.8913 20.0961 11.4743 21.7128C12.0572 23.3295 13.1454 24.7155 14.5775 25.6655C13.1454 26.6155 12.0572 28.0015 11.4743 29.6182C10.8913 31.2349 10.8445 32.9963 11.3408 34.6417C11.8371 36.2871 12.8501 37.7289 14.2299 38.7536C15.6096 39.7783 17.2826 40.3314 19.0012 40.331H25.278C27.3283 42.1391 29.9945 43.0911 32.7264 42.9902C35.4582 42.8893 38.047 41.7434 39.9583 39.7889C41.8696 37.8345 42.9576 35.2208 42.9975 32.4874C43.0374 29.754 42.0263 27.1096 40.1728 25.1002C41.422 24.0408 42.3159 22.6234 42.7337 21.0396C43.1515 19.4558 43.073 17.782 42.5088 16.2442C41.9447 14.7065 40.9221 13.379 39.5792 12.4411C38.2363 11.5032 36.6379 11.0002 34.9999 11H19.0012ZM21.6676 32.3316C21.6676 34.2741 22.1876 36.0953 23.0942 37.6645H19.0012C17.5868 37.6645 16.2304 37.1027 15.2303 36.1026C14.2301 35.1024 13.6683 33.746 13.6683 32.3316C13.6683 30.9172 14.2301 29.5608 15.2303 28.5607C16.2304 27.5606 17.5868 26.9987 19.0012 26.9987H23.0942C22.1567 28.6195 21.6646 30.4593 21.6676 32.3316ZM32.3335 21.6658C29.7347 21.662 27.2246 22.6106 25.278 24.3323H19.0012C17.5868 24.3323 16.2304 23.7704 15.2303 22.7703C14.2301 21.7702 13.6683 20.4137 13.6683 18.9994C13.6683 17.585 14.2301 16.2285 15.2303 15.2284C16.2304 14.2283 17.5868 13.6665 19.0012 13.6665H34.9999C36.1312 13.6665 37.2331 14.0262 38.1465 14.6937C39.0598 15.3612 39.7373 16.3018 40.0808 17.3796C40.4244 18.4574 40.4164 19.6166 40.0578 20.6895C39.6993 21.7625 39.0089 22.6936 38.0863 23.3483C36.3701 22.2466 34.3729 21.6624 32.3335 21.6658ZM32.3335 24.3323C30.2119 24.3323 28.1772 25.1751 26.6771 26.6752C25.1769 28.1754 24.3341 30.2101 24.3341 32.3316C24.3341 34.4532 25.1769 36.4879 26.6771 37.988C28.1772 39.4882 30.2119 40.331 32.3335 40.331C34.455 40.331 36.4897 39.4882 37.9899 37.988C39.49 36.4879 40.3328 34.4532 40.3328 32.3316C40.3328 30.2101 39.49 28.1754 37.9899 26.6752C36.4897 25.1751 34.455 24.3323 32.3335 24.3323Z" fill="#33C7AC"/>
</g>
</svg>
