<svg width="523" height="232" viewBox="0 0 523 232" fill="none" xmlns="http://www.w3.org/2000/svg">
    <g clip-path="url(#clip0_564_40)">
        <path d="M123.023 163.675V201.422H111.04V108.279H142.871C150.982 108.279 157.803 110.975 163.457 116.368C169.172 121.76 172.06 128.317 172.06 136.038C172.06 143.759 169.172 150.5 163.457 155.831C157.865 161.101 151.044 163.797 142.871 163.797H123.023V163.675ZM123.023 119.738V152.277H143.117C147.91 152.277 151.843 150.684 154.977 147.436C158.172 144.249 159.831 140.389 159.831 135.977C159.831 131.565 158.233 127.888 154.977 124.64C151.843 121.331 147.91 119.677 143.117 119.677H123.023V119.738Z" fill="#777677"/>
        <path d="M204.137 135.609C212.985 135.609 219.991 137.999 225.152 142.717C230.253 147.436 232.834 153.931 232.834 162.143V201.422H221.342V192.598H220.851C215.873 199.89 209.298 203.506 201.003 203.506C193.936 203.506 188.037 201.422 183.305 197.255C178.573 193.088 176.177 187.88 176.177 181.629C176.177 175.011 178.696 169.802 183.674 165.881C188.651 161.959 195.349 159.998 203.706 159.998C210.835 159.998 216.734 161.285 221.342 163.92V161.162C221.342 156.995 219.683 153.441 216.365 150.561C213.047 147.681 209.175 146.21 204.751 146.21C198.053 146.21 192.768 149.029 188.836 154.667L178.266 148.049C184.104 139.715 192.707 135.548 204.075 135.548L204.137 135.609ZM188.651 181.874C188.651 184.999 190.003 187.573 192.645 189.657C195.288 191.74 198.422 192.782 201.986 192.782C207.025 192.782 211.511 190.943 215.505 187.205C219.438 183.468 221.465 179.117 221.465 174.092C217.717 171.151 212.494 169.68 205.796 169.68C200.941 169.68 196.885 170.844 193.567 173.173C190.31 175.501 188.651 178.443 188.651 181.874Z" fill="#777677"/>
        <path d="M246.414 137.693H257.905V148.11H258.397C261.961 139.96 269.335 135.854 280.457 135.854L282.915 136.099V148.6L277.569 148.11C271.977 148.11 267.43 149.826 263.804 153.257C260.179 156.689 258.397 161.04 258.397 166.31V201.422H246.414V137.693ZM321.321 202.464C316.098 202.464 311.797 200.871 308.356 197.623C304.914 194.436 303.132 189.963 303.071 184.203V148.539H291.826V137.631H303.071V118.145H315.054V137.631H330.723V148.539H315.054V180.281C315.054 184.509 315.852 187.389 317.512 188.921C319.171 190.453 321.014 191.189 323.104 191.189C324.087 191.189 325.008 191.066 325.93 190.882C326.852 190.637 327.712 190.392 328.45 190.024L332.26 200.687C329.126 201.79 325.5 202.403 321.321 202.403V202.464Z" fill="#777677"/>
        <path d="M342.829 137.693H354.32V146.517H354.812C356.655 143.391 359.42 140.818 363.23 138.734C367.04 136.651 370.973 135.609 375.029 135.609C382.833 135.609 388.855 137.815 393.095 142.288C397.335 146.762 399.424 153.135 399.424 161.346V201.422H387.442V162.143C387.196 151.725 381.911 146.517 371.649 146.517C366.856 146.517 362.862 148.478 359.666 152.277C356.471 156.137 354.812 160.733 354.812 166.126V201.361H342.829V137.631V137.693Z" fill="#777677"/>
        <path d="M442.255 203.506C432.853 203.506 425.11 200.319 419.027 193.885C412.943 187.451 409.871 179.362 409.871 169.557C409.871 159.753 412.82 151.787 418.72 145.291C424.619 138.857 432.177 135.609 441.395 135.609C450.612 135.609 458.416 138.673 464.008 144.801C469.6 150.929 472.427 159.508 472.427 170.477L472.304 171.763H422.099C422.284 178.014 424.373 183.039 428.367 186.838C432.361 190.637 437.155 192.537 442.746 192.537C450.428 192.537 456.388 188.737 460.751 181.078L471.444 186.286C468.555 191.679 464.623 195.846 459.522 198.91C454.422 201.974 448.646 203.444 442.255 203.444V203.506ZM423.082 161.836H459.768C459.399 157.424 457.617 153.748 454.36 150.867C451.104 147.987 446.741 146.517 441.272 146.517C436.724 146.517 432.853 147.926 429.596 150.684C426.339 153.441 424.189 157.179 423.144 161.898L423.082 161.836Z" fill="#777677"/>
        <path d="M495.47 201.422H483.488V137.693H494.979V148.11H495.47C496.699 144.74 499.219 141.86 502.967 139.47C506.777 137.08 510.464 135.915 514.151 135.915C517.838 135.915 520.603 136.406 523 137.447L519.374 149.029C517.9 148.416 515.565 148.11 512.308 148.11C507.76 148.11 503.828 149.948 500.509 153.564C497.13 157.179 495.47 161.469 495.47 166.31V201.422Z" fill="#777677"/>
        <path d="M138.201 53.8024V61.9524H157.68C157.066 67.0998 154.915 71.0829 151.29 73.9017C147.726 76.7205 143.363 78.1299 138.201 78.1299C132.179 78.1299 127.14 76.0465 123.023 71.8183C118.906 67.6513 116.816 62.5652 116.816 56.4987C116.816 50.4321 118.906 45.346 123.023 41.1791C127.14 36.9509 132.24 34.8674 138.201 34.8674C143.854 34.8674 148.709 36.8283 152.887 40.6888L158.664 34.9287C152.887 29.4749 146.066 26.7174 138.201 26.7174C132.855 26.7174 127.816 28.0655 123.084 30.7617C118.352 33.3967 114.665 37.0734 111.962 41.7306C109.319 46.2652 107.967 51.1675 107.967 56.4374C107.967 61.7073 109.319 66.6709 111.962 71.2668C114.604 75.8626 118.352 79.4781 123.084 82.1743C127.816 84.8706 132.855 86.2187 138.201 86.2187C146.251 86.2187 152.949 83.7063 158.233 78.6814C163.457 73.7179 166.099 67.0998 166.099 58.8885C166.099 56.9276 165.976 55.2731 165.669 53.8024H138.262H138.201Z" fill="#487CBF"/>
        <path d="M188.221 47.9197C182.752 47.9197 178.143 49.7581 174.456 53.4348C170.769 57.0502 168.926 61.5848 168.926 67.0998C168.926 72.6149 170.769 77.0269 174.518 80.7649C178.205 84.4416 182.752 86.28 188.221 86.28C193.69 86.28 198.237 84.4416 201.924 80.7649C205.673 77.0269 207.516 72.4923 207.516 67.0998C207.516 61.7073 205.673 57.1115 201.924 53.4348C198.237 49.7581 193.69 47.9197 188.221 47.9197ZM195.902 75.3724C193.813 77.5784 191.293 78.6815 188.282 78.6815C185.271 78.6815 182.629 77.5784 180.54 75.3724C178.45 73.1664 177.406 70.4089 177.406 67.0998C177.406 63.7908 178.45 60.972 180.54 58.8273C182.629 56.6212 185.21 55.5182 188.282 55.5182C191.355 55.5182 193.936 56.6212 196.025 58.8273C198.114 60.972 199.159 63.7295 199.159 67.0998C199.159 70.4702 198.114 73.1051 195.964 75.3724H195.902Z" fill="#EF372C"/>
        <path d="M304.115 28.8008H295.697V85.1157H304.115V28.8008Z" fill="#00AC4E"/>
        <path d="M230.314 47.9197C224.845 47.9197 220.236 49.7581 216.549 53.4348C212.862 57.0502 211.019 61.5848 211.019 67.0998C211.019 72.6149 212.862 77.0269 216.611 80.7649C220.298 84.4416 224.845 86.28 230.314 86.28C235.783 86.28 240.331 84.4416 244.018 80.7649C247.766 77.0269 249.609 72.4923 249.609 67.0998C249.609 61.7073 247.766 57.1115 244.018 53.4348C240.331 49.7581 235.783 47.9197 230.314 47.9197ZM237.934 75.3724C235.845 77.5784 233.325 78.6815 230.314 78.6815C227.303 78.6815 224.661 77.5784 222.572 75.3724C220.482 73.1664 219.438 70.4089 219.438 67.0998C219.438 63.7908 220.482 60.972 222.572 58.8273C224.661 56.6212 227.242 55.5182 230.314 55.5182C233.387 55.5182 235.968 56.6212 238.057 58.8273C240.146 60.972 241.191 63.7295 241.191 67.0998C241.191 70.4702 240.146 73.1051 237.995 75.3724H237.934Z" fill="#FDB614"/>
        <path d="M327.282 78.6815C323.042 78.6815 319.97 76.7206 317.942 72.86L343.628 62.2589L342.767 60.0528C342.092 58.2758 341.231 56.6212 340.125 55.0893C339.019 53.6186 337.79 52.2705 336.377 51.2287C334.963 50.1257 333.427 49.3291 331.706 48.7163C329.986 48.1648 328.204 47.8584 326.299 47.8584C321.137 47.8584 316.836 49.6968 313.333 53.3122C309.892 56.9889 308.171 61.5848 308.171 67.0386C308.171 72.4923 310.015 77.0269 313.64 80.7036C317.266 84.3804 321.813 86.2187 327.221 86.2187C334.042 86.2187 339.326 83.3999 343.198 77.701L336.622 73.3502C334.226 76.9044 331.092 78.6202 327.159 78.6202L327.282 78.6815ZM319.539 58.5209C321.69 56.3761 324.025 55.3344 326.668 55.3344C328.327 55.3344 329.802 55.7021 331.092 56.4374C332.382 57.1727 333.304 58.1532 333.796 59.3788L316.651 66.4871C316.528 63.2393 317.512 60.6043 319.539 58.5209Z" fill="#EF372C"/>
        <path d="M281.871 52.2092H281.563C279.167 49.3291 275.787 47.9197 271.424 47.9197C266.447 47.9197 262.145 49.8193 258.458 53.5573C254.833 57.3566 252.989 61.8299 252.989 67.0998C252.989 72.3698 254.833 76.8431 258.458 80.5811C262.207 84.3191 266.508 86.1574 271.424 86.1574C275.726 86.1574 279.105 84.6867 281.563 81.8067H281.871V83.7676C281.871 91.795 278.429 95.8394 271.609 95.8394C269.396 95.8394 267.491 95.2266 265.771 93.9398C264.05 92.6529 262.76 91.0597 261.899 88.9762L254.525 92.0401C255.263 93.7559 256.185 95.2879 257.291 96.636C258.397 98.0454 259.687 99.2097 261.162 100.19C262.637 101.171 264.235 101.967 266.017 102.519C267.737 103.07 269.581 103.377 271.547 103.377C277.262 103.377 281.748 101.661 284.943 98.168C288.139 94.7364 289.798 89.7728 289.798 83.3999V49.0227H281.809V52.1479L281.871 52.2092ZM279.474 75.4337C277.508 77.6397 275.05 78.6815 272.223 78.6815C269.212 78.6815 266.693 77.5784 264.603 75.3724C262.575 73.1664 261.531 70.4089 261.531 67.1611C261.531 63.9134 262.575 61.0946 264.665 58.8885C266.815 56.6212 269.335 55.457 272.223 55.457C275.111 55.457 277.569 56.56 279.474 58.766C281.44 61.0333 282.485 63.8521 282.485 67.0998C282.485 70.3476 281.502 73.1051 279.474 75.3724V75.4337Z" fill="#487CBF"/>
        <path d="M61.2041 0H0V232H61.2041V0Z" fill="#487CBF"/>
    </g>
    <defs>
        <clipPath id="clip0_564_40">
            <rect width="523" height="232" fill="white"/>
        </clipPath>
    </defs>
</svg>
