<svg width="214" height="325" viewBox="0 0 214 325" fill="none" xmlns="http://www.w3.org/2000/svg">
    <path d="M18.4122 323.676L5.06224 288.787H4.84988C5.09916 291.547 5.22841 294.834 5.22841 298.638V323.667H1V284.318H7.88734L20.351 316.779H20.5634L33.1379 284.318H39.9791V323.667H35.3998V298.315C35.3998 295.406 35.529 292.249 35.7783 288.842H35.566L22.1052 323.676H18.4215H18.4122Z" fill="#5B5C87"/>
    <path d="M62.5615 324.211C58.2038 324.211 54.7601 322.882 52.2397 320.232C49.7192 317.573 48.4544 313.89 48.4544 309.172C48.4544 304.454 49.6269 300.641 51.9627 297.844C54.2985 295.046 57.4467 293.643 61.3982 293.643C65.0911 293.643 68.0178 294.862 70.1689 297.29C72.3201 299.718 73.4002 302.931 73.4002 306.91V309.735H53.0798C53.1721 313.197 54.04 315.828 55.7018 317.619C57.3636 319.41 59.6994 320.315 62.7184 320.315C65.8943 320.315 69.0333 319.651 72.1354 318.321V322.3C70.5567 322.983 69.061 323.473 67.6577 323.768C66.2452 324.064 64.5464 324.211 62.5615 324.211ZM61.352 297.382C58.9793 297.382 57.0959 298.158 55.6834 299.699C54.2708 301.241 53.4491 303.383 53.1906 306.107H68.6179C68.6179 303.291 67.9901 301.13 66.7345 299.635C65.4789 298.139 63.6878 297.391 61.352 297.391V297.382Z" fill="#5B5C87"/>
    <path d="M118.63 323.676V304.482C118.63 302.128 118.131 300.364 117.125 299.192C116.118 298.019 114.558 297.428 112.444 297.428C109.665 297.428 107.606 298.232 106.277 299.819C104.947 301.417 104.283 303.872 104.283 307.196V323.667H99.814V304.473C99.814 302.118 99.3155 300.355 98.3092 299.182C97.3028 298.01 95.7333 297.419 93.6006 297.419C90.8032 297.419 88.7536 298.259 87.4519 299.939C86.1501 301.62 85.5039 304.371 85.5039 308.193V323.667H81.0354V294.169H84.673L85.4023 298.204H85.6146C86.4548 296.773 87.6458 295.646 89.1784 294.843C90.7109 294.04 92.4281 293.634 94.33 293.634C98.9462 293.634 101.956 295.305 103.378 298.638H103.59C104.467 297.096 105.741 295.877 107.412 294.982C109.083 294.086 110.985 293.634 113.118 293.634C116.46 293.634 118.953 294.492 120.615 296.2C122.276 297.918 123.107 300.66 123.107 304.426V323.676H118.639H118.63Z" fill="#5B5C87"/>
    <path d="M146.031 293.689C149.909 293.689 152.919 295.009 155.061 297.659C157.202 300.309 158.273 304.048 158.273 308.895C158.273 313.742 157.193 317.509 155.033 320.186C152.872 322.873 149.872 324.211 146.031 324.211C144.111 324.211 142.357 323.86 140.769 323.15C139.181 322.439 137.851 321.349 136.771 319.881H136.448L135.506 323.676H132.303V281.789H136.771V291.963C136.771 294.243 136.697 296.283 136.559 298.102H136.771C138.848 295.157 141.941 293.689 146.031 293.689ZM145.385 297.428C142.338 297.428 140.132 298.305 138.793 300.05C137.445 301.804 136.771 304.749 136.771 308.895C136.771 313.04 137.464 316.004 138.848 317.795C140.233 319.577 142.449 320.472 145.496 320.472C148.238 320.472 150.287 319.475 151.635 317.472C152.983 315.468 153.657 312.597 153.657 308.849C153.657 305.1 152.983 302.146 151.635 300.263C150.287 298.379 148.21 297.437 145.394 297.437L145.385 297.428Z" fill="#5B5C87"/>
    <path d="M178.548 324.211C174.19 324.211 170.746 322.882 168.226 320.232C165.705 317.573 164.441 313.89 164.441 309.172C164.441 304.454 165.613 300.641 167.949 297.844C170.294 295.046 173.433 293.643 177.384 293.643C181.077 293.643 184.004 294.862 186.155 297.29C188.306 299.718 189.387 302.931 189.387 306.91V309.735H169.066C169.158 313.197 170.026 315.828 171.688 317.619C173.35 319.41 175.686 320.315 178.695 320.315C181.871 320.315 185.01 319.651 188.122 318.321V322.3C186.543 322.983 185.047 323.473 183.644 323.768C182.231 324.064 180.533 324.211 178.538 324.211H178.548ZM177.338 297.382C174.966 297.382 173.082 298.158 171.67 299.699C170.257 301.241 169.435 303.383 169.177 306.107H184.604C184.604 303.291 183.976 301.13 182.721 299.635C181.465 298.139 179.674 297.391 177.338 297.391V297.382Z" fill="#5B5C87"/>
    <path d="M210.473 293.634C211.784 293.634 212.957 293.745 214 293.957L213.381 298.102C212.163 297.835 211.083 297.696 210.15 297.696C207.759 297.696 205.719 298.665 204.029 300.604C202.33 302.543 201.481 304.953 201.481 307.842V323.667H197.012V294.169H200.705L201.213 299.635H201.426C202.515 297.714 203.835 296.237 205.386 295.194C206.928 294.151 208.627 293.634 210.473 293.634Z" fill="#5B5C87"/>
    <path d="M162.26 91.57V91.5V31.95L106.91 0L51.56 31.95V91.5V91.57L0 121.34V185.25L55.35 217.2L106.92 187.43L158.49 217.2L213.84 185.25V121.34L162.27 91.57H162.26ZM106.91 119.09L62.9 93.68L106.91 68.27L150.92 93.68L106.91 119.09ZM59.12 100.29L103.13 125.7V176.45L59.12 151.04V100.29ZM110.69 125.71L154.7 100.3V151.05L110.69 176.46V125.71ZM59.12 36.32L106.91 8.73L154.7 36.32V87.14L106.91 59.55L59.12 87.14V36.32ZM7.55 180.89V125.71L51.56 100.3V155.41L99.41 183.04L55.33 208.49L7.54 180.9L7.55 180.89ZM206.28 180.89L158.49 208.48L114.41 183.03L162.26 155.4V100.29L206.27 125.7V180.88L206.28 180.89Z" fill="url(#paint0_linear_0_1)"/>
    <path d="M19.0602 268.873L12.3564 256.894H8.50662V268.873H0V234.98H14.8285C18.202 234.98 20.8158 235.693 22.9573 237.263C25.571 239.165 26.9488 242.302 26.9488 245.675C26.9488 249.809 24.953 253.851 20.5324 255.658L28.3265 268.873H19.0563H19.0602ZM13.7381 241.637H8.46332V250.62H13.7381C16.781 250.62 18.6823 248.86 18.6823 246.105C18.6823 242.967 16.592 241.637 13.7381 241.637Z" fill="#25316A"/>
    <path d="M32.1724 268.873V234.98H40.6791V268.869H32.1724V268.873Z" fill="#25316A"/>
    <path d="M61.9751 257.131H54.9407V268.869H46.4813V234.98H61.7862C69.2969 234.98 73.6703 239.59 73.6703 245.864C73.6703 251.427 70.2495 257.131 61.9791 257.131H61.9751ZM60.4045 241.637H54.9368V250.62H60.4045C63.3056 250.62 65.3486 249.1 65.3486 246.057C65.3486 243.014 63.4473 241.637 60.4045 241.637Z" fill="#25316A"/>
    <path d="M77.9373 268.873V234.98H102.89V241.873H86.3967V248.337H100.277V255.182H86.3967V261.933H102.985V268.873H77.9373Z" fill="#25316A"/>
    <path d="M141.337 268.873L128.076 248.958H127.981V268.873H120.14V234.98H128.363L141.243 254.135H141.337V234.98H149.226V268.869H141.337V268.873Z" fill="#25316A"/>
    <path d="M168.566 269.44C161.102 269.44 154.115 265.684 154.115 257.225V246.912C154.115 238.594 160.866 234.409 168.326 234.409C174.931 234.409 182.111 237.736 182.111 245.581V247.199H174.124V246.392C174.124 242.873 171.128 241.353 168.515 241.353C165.519 241.353 162.622 242.924 162.622 246.774V257.04C162.622 260.512 165.141 262.508 168.609 262.508C171.223 262.508 174.124 261.035 174.124 257.469V256.662H182.111V258.327C182.111 266.121 175.124 269.452 168.566 269.452V269.44Z" fill="#25316A"/>
    <path d="M200.455 269.44C192.991 269.44 186.004 265.684 186.004 257.225V246.912C186.004 238.594 192.755 234.409 200.215 234.409C206.82 234.409 214 237.736 214 245.581V247.199H206.013V246.392C206.013 242.873 203.017 241.353 200.404 241.353C197.408 241.353 194.511 242.924 194.511 246.774V257.04C194.511 260.512 197.03 262.508 200.498 262.508C203.112 262.508 206.013 261.035 206.013 257.469V256.662H214V258.327C214 266.121 207.013 269.452 200.455 269.452V269.44Z" fill="#25316A"/>
    <defs>
        <linearGradient id="paint0_linear_0_1" x1="28.02" y1="213.28" x2="185.8" y2="55.5" gradientUnits="userSpaceOnUse">
            <stop stop-color="#25316A"/>
            <stop offset="0.07" stop-color="#293268"/>
            <stop offset="0.14" stop-color="#353564"/>
            <stop offset="0.2" stop-color="#493B5D"/>
            <stop offset="0.27" stop-color="#654353"/>
            <stop offset="0.34" stop-color="#8A4E46"/>
            <stop offset="0.41" stop-color="#B75A36"/>
            <stop offset="0.48" stop-color="#EB6923"/>
            <stop offset="0.49" stop-color="#F36C21"/>
            <stop offset="1" stop-color="#9C9C9C"/>
        </linearGradient>
    </defs>
</svg>
