<svg width="53" height="52" viewBox="0 0 53 52" fill="none" xmlns="http://www.w3.org/2000/svg">
<rect width="53" height="52" rx="10" fill="#F58B21" fill-opacity="0.1"/>
<path d="M17.5085 40H36.4915M27 40V35.6525H16.5593C14.5936 35.6525 13 34.1159 13 32.2203V29.9322C13 28.0367 14.5936 26.5 16.5593 26.5H37.4407C39.4064 26.5 41 28.0367 41 29.9322V32.2203C41 34.1159 39.4064 35.6525 37.4407 35.6525H31.7458M27 26.5V22.1525H16.5593C14.5936 22.1525 13 20.6159 13 18.7203V16.4322C13 14.5367 14.5936 13 16.5593 13H37.4407C39.4064 13 41 14.5367 41 16.4322V18.7203C41 20.6159 39.4064 22.1525 37.4407 22.1525H31.7458M17.7458 17.5763H24.6271M17.7458 31.0763H24.6271" stroke="#F58B21" stroke-width="2" stroke-miterlimit="10" stroke-linecap="round" stroke-linejoin="round"/>
</svg>
