<svg width="53" height="52" viewBox="0 0 53 52" fill="none" xmlns="http://www.w3.org/2000/svg">
<rect width="53" height="52" rx="10" fill="#0079E9" fill-opacity="0.1"/>
<path d="M42.4169 13H11.2064C10.5412 13 10 13.5412 10 14.2064V33.5387C10 34.2039 10.5412 34.7451 11.2064 34.7451H11.7784C11.7784 34.7451 19.9476 34.7451 23.6749 34.7451V38.7358C22.0509 38.9938 20.465 39.4523 18.9345 40.1098C18.4347 40.3245 18.2037 40.9037 18.4184 41.4035C18.6331 41.9032 19.2124 42.1343 19.7121 41.9195C21.9681 40.9503 24.3571 40.4583 26.8126 40.4574H26.8191C29.2722 40.4574 31.6595 40.9477 33.9135 41.9143L33.9259 41.9196C34.0485 41.9725 34.1807 41.9998 34.3143 41.9998C34.6959 41.9998 35.0593 41.7765 35.2195 41.4035C35.4343 40.9039 35.2032 40.3246 34.7035 40.1098L34.6905 40.1043C33.1592 39.4477 31.5728 38.9902 29.9485 38.7334V34.745H42.4169C43.0821 34.745 43.6232 34.2038 43.6232 33.5386V14.2064C43.6232 13.5412 43.082 13 42.4169 13ZM27.9787 38.5224C27.5926 38.4998 27.2059 38.4884 26.8191 38.488H26.8119C26.4211 38.4881 26.0321 38.5008 25.6446 38.5233V34.7452H27.9786L27.9787 38.5224ZM41.6535 32.7754C41.6535 32.7754 13.2625 32.7753 13.7482 32.7753H11.9697V14.9697H41.6535V32.7754Z" fill="#0079E9"/>
<path d="M29.9126 25.3138C29.3687 25.3138 28.9277 25.7547 28.9277 26.2986V30.0998C28.9277 30.6436 29.3687 31.0846 29.9126 31.0846C30.4565 31.0846 30.8975 30.6436 30.8975 30.0998V26.2986C30.8975 25.7547 30.4565 25.3138 29.9126 25.3138ZM32.9985 18.748C32.4546 18.748 32.0136 19.189 32.0136 19.7329V30.0998C32.0136 30.6437 32.4546 31.0847 32.9985 31.0847C33.5424 31.0847 33.9834 30.6437 33.9834 30.0998V19.7329C33.9834 19.189 33.5425 18.748 32.9985 18.748ZM36.1355 21.3743C35.5916 21.3743 35.1506 21.8153 35.1506 22.3592V30.0998C35.1506 30.6436 35.5915 31.0846 36.1355 31.0846C36.6793 31.0846 37.1203 30.6436 37.1203 30.0998V22.3592C37.1203 21.8153 36.6793 21.3743 36.1355 21.3743ZM39.2745 24.0006C38.7306 24.0006 38.2896 24.4416 38.2896 24.9855V30.0998C38.2896 30.6436 38.7306 31.0846 39.2745 31.0846C39.8184 31.0846 40.2594 30.6436 40.2594 30.0998V24.9855C40.2594 24.4416 39.8184 24.0006 39.2745 24.0006Z" fill="#0079E9"/>
<path d="M25.2251 28.9497L22.6002 26.3248M15.0752 23.1748C15.0752 20.7585 17.0339 18.7998 19.4502 18.7998C21.8664 18.7998 23.8251 20.7585 23.8251 23.1748C23.8251 25.591 21.8664 27.5498 19.4502 27.5498C17.0339 27.5498 15.0752 25.591 15.0752 23.1748Z" stroke="#0079E9" stroke-width="2" stroke-linecap="round" stroke-linejoin="round"/>
</svg>
