<svg width="53" height="52" viewBox="0 0 53 52" fill="none" xmlns="http://www.w3.org/2000/svg">
<rect width="53" height="52" rx="10" fill="#EBEDF5"/>
<path d="M20.9775 17.8451L22.3208 19.1884C24.795 16.7146 28.8044 16.7146 31.2774 19.1884L32.6219 17.8451C29.4056 14.6291 24.1939 14.6291 20.9775 17.8451Z" fill="#505FAA"/>
<path d="M39.4662 23.6665C39.4662 16.6704 33.7973 11 26.7996 11C19.8038 11 14.1331 16.6704 14.1331 23.6665C13.4612 23.6665 12.8168 23.9335 12.3416 24.4086C11.8665 24.8837 11.5996 25.5281 11.5996 26.2V33.8C11.5996 34.4719 11.8665 35.1163 12.3416 35.5914C12.8168 36.0665 13.4612 36.3335 14.1331 36.3335H17.9331C18.0994 36.3335 18.2642 36.3008 18.4179 36.2371C18.5716 36.1735 18.7113 36.0801 18.8289 35.9625C18.9465 35.8448 19.0398 35.7051 19.1034 35.5514C19.167 35.3977 19.1997 35.2329 19.1996 35.0665V28.7335C19.1996 28.0369 18.8834 26.9915 18.497 26.4128L16.6665 23.6669C16.6665 18.0695 21.203 13.5335 26.8 13.5335C32.3985 13.5335 36.9335 18.0695 36.9335 23.6669L35.1026 26.4128C34.7162 26.9915 34.3996 28.0369 34.3996 28.7335V35.4207C32.5429 37.5297 29.8305 38.8665 26.7996 38.8665H24.2662V41.4H26.7996C30.9409 41.4 34.6048 39.4046 36.9156 36.3335H39.4662C40.1381 36.3335 40.7825 36.0665 41.2576 35.5914C41.7327 35.1163 41.9996 34.4719 41.9996 33.8V26.2C41.9996 25.5281 41.7327 24.8837 41.2576 24.4086C40.7825 23.9335 40.1381 23.6665 39.4662 23.6665Z" fill="#505FAA"/>
</svg>
