<svg width="234" height="59" viewBox="0 0 234 59" fill="none" xmlns="http://www.w3.org/2000/svg">
    <g clip-path="url(#clip0_0_1)">
        <path d="M232.041 27.5972H228.836C227.86 15.1989 217.452 5.45129 204.74 5.45129C200.205 5.45129 195.969 6.68805 192.353 8.85835L190.305 5.90784C189.675 5.00497 189.942 3.75798 190.918 3.26396C194.986 1.17884 199.596 0 204.483 0C207.257 0 209.945 0.38159 212.49 1.08344C213.13 1.26402 213.599 1.77848 213.808 2.39516C215.606 7.64884 220.599 11.417 226.483 11.417H226.808C227.469 11.3966 228.11 11.6555 228.5 12.187C231.312 16.0506 233.216 20.6195 233.877 25.5768C234.021 26.6602 233.14 27.5938 232.041 27.5938V27.5972Z" fill="white"/>
        <path d="M190.719 49.0855L188.901 52.1791C188.346 53.1296 187.092 53.4158 186.212 52.7412C182.212 49.6204 179.027 45.4978 177.068 40.7518C176.812 40.1317 176.935 39.4299 177.318 38.8779C178.774 36.7451 179.613 34.1762 179.613 31.4062C179.613 28.1627 178.445 25.1815 176.503 22.8716C176.072 22.3571 175.88 21.6825 176.072 21.0352C177.726 15.543 180.942 10.7186 185.216 7.08326C186.038 6.378 187.281 6.57902 187.894 7.47507L189.969 10.4733C186.209 13.3557 183.332 17.3249 181.808 21.904C181.74 22.122 181.664 22.3401 181.599 22.5615C181.524 22.7796 181.455 23.0078 181.408 23.2293C181.349 23.4303 181.301 23.6382 181.247 23.8494C181.226 23.8971 181.219 23.9346 181.219 23.9823C181.113 24.4013 181.027 24.8306 180.952 25.2565C180.904 25.4848 180.866 25.7233 180.836 25.9515C180.729 26.6466 180.654 27.3587 180.616 28.0741C180.606 28.2275 180.596 28.3876 180.589 28.5511C180.579 28.8646 180.568 29.1882 180.568 29.5119C180.568 29.856 180.568 30.1967 180.589 30.5408C180.599 30.6839 180.61 30.827 180.616 30.9701C180.637 31.3619 180.664 31.7401 180.712 32.1115C180.74 32.4147 180.781 32.7214 180.829 33.0144C180.877 33.3653 180.935 33.7094 181 34.0433C181.038 34.2137 181.068 34.3874 181.106 34.5578C181.164 34.8337 181.223 35.0995 181.298 35.3584C181.356 35.5867 181.421 35.8252 181.49 36.0535C181.558 36.2817 181.623 36.51 181.692 36.7383C181.76 36.9666 181.836 37.1948 181.921 37.4231C183.575 42.1725 186.685 46.2338 190.723 49.0991L190.719 49.0855Z" fill="white"/>
        <path d="M233.993 32.4113C233.455 37.9205 231.39 42.9936 228.226 47.1911C228.034 47.4399 227.729 47.583 227.404 47.583C221.36 47.583 216.212 51.3035 214.319 56.489C214.099 57.0784 213.647 57.5724 213.045 57.753C210.339 58.5605 207.459 59 204.483 59C200.055 59 195.856 58.0392 192.086 56.3084C191.099 55.8519 190.774 54.6628 191.312 53.7293L193.147 50.6084C196.582 52.4823 200.531 53.5487 204.74 53.5487C217.767 53.5487 228.387 43.2901 228.894 30.4523H232.147C233.229 30.4523 234.099 31.3483 233.993 32.4113Z" fill="white"/>
        <path d="M193.058 23.7949C193.346 23.3588 193.521 22.8307 193.586 22.2106C193.26 22.3639 192.983 22.6365 192.75 23.0317C192.507 23.4338 192.281 23.9073 192.079 24.4559C192.442 24.4525 192.771 24.231 193.058 23.7949Z" fill="white"/>
        <path d="M195.781 17.2976C196.11 17.4611 196.414 17.6383 196.688 17.8257C196.962 18.0131 197.243 18.2005 197.527 18.381C197.565 18.4185 197.63 18.4287 197.716 18.4083C197.801 18.3845 197.894 18.347 197.986 18.2959C198.082 18.2448 198.171 18.1937 198.257 18.1357C198.343 18.0778 198.408 18.0335 198.445 17.9926C198.579 17.887 198.706 17.7746 198.822 17.6622C198.949 17.5429 199.065 17.41 199.175 17.2669C199.356 17.0523 199.476 16.8479 199.541 16.6537C199.613 16.4595 199.616 16.2687 199.551 16.0881C199.503 15.9314 199.425 15.7883 199.315 15.6622C199.212 15.5293 199.093 15.4101 198.949 15.3045C198.808 15.192 198.654 15.0864 198.49 14.9944C198.325 14.899 198.161 14.8139 197.993 14.7389C197.932 14.7082 197.87 14.6912 197.815 14.6912C197.76 14.6844 197.706 14.7116 197.651 14.7764L195.764 17.0761C195.726 17.1341 195.702 17.1784 195.692 17.209C195.692 17.2329 195.719 17.2635 195.774 17.2942L195.781 17.2976Z" fill="white"/>
        <path d="M203.322 12.5005C203.479 12.5823 203.64 12.6743 203.805 12.7731C203.86 12.8037 203.914 12.8378 203.969 12.8753C204.151 12.9809 204.319 13.0933 204.476 13.2058C204.64 13.3182 204.812 13.4306 204.983 13.5362C205.031 13.5737 205.086 13.5942 205.147 13.5942H205.229L205.301 13.5737C205.363 13.5533 205.438 13.5158 205.524 13.4613L205.582 13.4238L205.699 13.3284C205.736 13.308 205.771 13.2841 205.795 13.2535L205.866 13.1955C205.89 13.1819 205.911 13.1683 205.925 13.1478C205.949 13.1274 205.969 13.1138 205.983 13.1001C205.983 13.0933 205.99 13.0831 206.007 13.0729L206.195 12.8855C206.219 12.865 206.247 12.8378 206.277 12.8003C206.295 12.7867 206.305 12.7731 206.312 12.7526C206.329 12.7322 206.342 12.7185 206.36 12.7049L206.418 12.6402L206.558 12.4698C206.558 12.4698 206.565 12.4528 206.582 12.4426C206.599 12.4187 206.616 12.3949 206.64 12.3778C206.664 12.354 206.685 12.3233 206.699 12.2927L206.736 12.2381C206.911 12.337 207.075 12.4392 207.229 12.5482C207.497 12.7254 207.767 12.8991 208.045 13.0763C208.075 13.0967 208.113 13.1104 208.151 13.124C208.188 13.1376 208.236 13.141 208.291 13.1342C208.346 13.1206 208.414 13.0967 208.493 13.0592C208.572 13.0218 208.661 12.957 208.764 12.8719C208.928 12.7458 209.079 12.6129 209.212 12.4766C209.353 12.3335 209.493 12.1768 209.627 12.0133C209.791 11.8123 209.908 11.6181 209.969 11.4273C210.041 11.2399 210.045 11.0559 209.979 10.8787C209.942 10.7288 209.87 10.5925 209.767 10.4733C209.664 10.3472 209.548 10.2314 209.414 10.1258C209.281 10.0202 209.13 9.92476 208.966 9.84299C208.808 9.7544 208.651 9.67263 208.493 9.59768C208.432 9.56701 208.37 9.54998 208.315 9.54998C208.267 9.54317 208.216 9.57042 208.161 9.62493L206.87 11.216L206.853 11.1717C206.836 11.1343 206.822 11.107 206.805 11.0866C206.774 11.0252 206.729 10.9605 206.675 10.8992L206.569 10.7867L206.428 10.6539C206.295 10.5482 206.164 10.4563 206.038 10.3813L205.99 10.354C205.942 10.3234 205.894 10.2961 205.849 10.2791C205.801 10.2552 205.753 10.228 205.709 10.2041C205.678 10.1837 205.647 10.1701 205.613 10.1564C205.596 10.1428 205.582 10.136 205.565 10.1292C205.548 10.1224 205.534 10.1156 205.517 10.1087C205.5 10.0951 205.486 10.0883 205.469 10.0883C205.452 10.0815 205.438 10.0713 205.421 10.061L205.339 10.0338C205.339 10.0338 205.322 10.0236 205.315 10.0236C205.298 10.0167 205.291 10.0133 205.291 10.0133C205.229 9.99971 205.168 10.0236 205.113 10.0781C205.106 10.0849 205.103 10.0917 205.103 10.0985L203.298 12.2961C203.26 12.3472 203.24 12.3846 203.24 12.4085C203.24 12.4323 203.26 12.463 203.298 12.4937C203.298 12.5005 203.301 12.5039 203.308 12.5039L203.322 12.5005Z" fill="white"/>
        <path d="M199.507 35.9887C199.671 36.1012 199.842 36.2136 200.014 36.3192C200.062 36.3567 200.116 36.3771 200.178 36.3771H200.26L200.332 36.3567C200.394 36.3362 200.469 36.2988 200.555 36.2443L200.613 36.2068L200.729 36.1114C200.767 36.0909 200.801 36.0671 200.825 36.0364L200.897 35.9785C200.921 35.9649 200.942 35.9512 200.955 35.9308C200.979 35.9104 201 35.8967 201.014 35.8831C201.014 35.8763 201.021 35.8661 201.038 35.8558L201.226 35.6685C201.25 35.648 201.277 35.6208 201.308 35.5833C201.325 35.5697 201.336 35.556 201.342 35.5356C201.36 35.5151 201.373 35.5015 201.39 35.4879L201.449 35.4232L201.589 35.2528C201.589 35.2528 201.596 35.2358 201.613 35.2255C201.63 35.2017 201.647 35.1744 201.671 35.1506C201.695 35.1301 201.716 35.1063 201.729 35.0756L201.788 34.9905V34.9734C201.788 34.9734 201.798 34.97 201.798 34.9632C201.815 34.9394 201.825 34.9121 201.832 34.8882C201.849 34.8644 201.863 34.8371 201.88 34.8133L201.928 34.7009V34.6736C201.928 34.6736 201.938 34.6566 201.938 34.6463L201.973 34.5339V34.4862C201.973 34.4862 201.983 34.4624 201.983 34.4487V34.3159C201.983 34.3159 201.979 34.2886 201.973 34.2682V34.2307C201.973 34.2307 201.962 34.2034 201.962 34.183C201.955 34.1694 201.952 34.1523 201.952 34.1251C201.945 34.1183 201.942 34.1046 201.942 34.0876C201.935 34.074 201.932 34.0671 201.932 34.0603C201.932 34.0535 201.928 34.0467 201.921 34.0399L201.887 33.9547C201.87 33.9172 201.856 33.89 201.839 33.8695C201.808 33.8082 201.764 33.7435 201.709 33.6821L201.603 33.5697L201.462 33.4368C201.401 33.3857 201.336 33.338 201.274 33.2937C201.212 33.2495 201.144 33.2052 201.072 33.1609L201.024 33.1336C200.976 33.1029 200.928 33.0723 200.884 33.0484C200.836 33.0314 200.788 33.0075 200.743 32.9837C200.712 32.9633 200.682 32.9496 200.647 32.936C200.63 32.9224 200.616 32.9156 200.599 32.9087C200.582 32.9019 200.569 32.8951 200.551 32.8917C200.534 32.8781 200.521 32.8713 200.503 32.8645C200.486 32.8645 200.473 32.8576 200.455 32.8474L200.373 32.8202C200.373 32.8202 200.356 32.8099 200.349 32.8099C200.332 32.8031 200.325 32.7997 200.325 32.7997C200.264 32.7861 200.202 32.8099 200.147 32.8645C200.14 32.8713 200.137 32.8781 200.137 32.8849L198.332 35.0824C198.295 35.1336 198.274 35.171 198.274 35.1949C198.274 35.2187 198.295 35.2494 198.332 35.2801C198.332 35.2869 198.336 35.2903 198.342 35.2903C198.5 35.372 198.661 35.464 198.825 35.5628C198.88 35.5935 198.935 35.6276 198.99 35.6651C199.171 35.7707 199.339 35.8831 199.497 35.9955L199.507 35.9887Z" fill="white"/>
        <path d="M212.764 37.1097C212.801 37.1471 212.866 37.154 212.952 37.1267C213.038 37.1097 213.13 37.0722 213.223 37.0245C213.319 36.9734 213.408 36.9223 213.493 36.8644C213.579 36.8064 213.644 36.7622 213.682 36.7213C213.815 36.6156 213.942 36.4998 214.058 36.3806C214.185 36.2681 214.301 36.1387 214.411 35.9956C214.592 35.7809 214.712 35.5765 214.777 35.3823C214.849 35.1881 214.853 34.9973 214.788 34.8167C214.74 34.66 214.661 34.5135 214.551 34.384C214.449 34.258 214.325 34.1387 214.185 34.0263C214.045 33.9207 213.89 33.8185 213.726 33.7231C213.562 33.6277 213.397 33.5425 213.229 33.4675C213.168 33.4369 213.106 33.4164 213.051 33.4096C212.997 33.4096 212.942 33.4403 212.887 33.505L211 35.8048C210.962 35.8627 210.938 35.9036 210.928 35.9274C210.928 35.9581 210.955 35.9888 211.01 36.0228C211.339 36.1864 211.644 36.3635 211.918 36.5509C212.192 36.7383 212.473 36.9257 212.757 37.1063L212.764 37.1097Z" fill="white"/>
        <path d="M216.144 18.7627C216 18.7729 215.856 18.8547 215.716 19.0114C215.582 19.1681 215.466 19.3351 215.363 19.5122C215.182 19.887 214.801 20.1834 214.216 20.4049C213.712 20.582 213.281 20.766 212.921 20.9534C212.562 21.134 212.274 21.3248 212.062 21.5258C211.856 21.7268 211.671 21.9244 211.514 22.1254C211.356 22.3196 211.205 22.5173 211.062 22.7183C210.928 22.9193 210.795 23.1237 210.668 23.3315C210.541 23.5394 210.401 23.754 210.25 23.9755C209.986 24.3979 209.527 24.7966 208.863 25.1679C208.699 25.2667 208.545 25.3553 208.397 25.4337C208.257 25.5121 208.072 25.6143 207.832 25.7335C207.596 25.8562 207.288 26.0129 206.914 26.2071C206.538 26.3945 206.038 26.6432 205.408 26.9532C205.099 27.0997 204.904 27.2462 204.829 27.3996C204.753 27.5461 204.805 27.6415 204.99 27.6926C205.031 27.6994 205.099 27.7062 205.195 27.7096C205.284 27.7062 205.36 27.7028 205.425 27.696L207.637 27.4643C208.445 27.3655 209.058 27.1508 209.476 26.817C209.781 26.6091 210.034 26.34 210.236 26.0095C210.449 25.6756 210.637 25.3349 210.808 24.984C210.986 24.6364 211.158 24.306 211.322 23.9959C211.483 23.6791 211.671 23.4337 211.887 23.26C212.027 23.1305 212.205 23.0079 212.418 22.8988C212.63 22.783 212.887 22.6808 213.188 22.5956C213.479 22.5138 213.757 22.4082 214.017 22.2719C214.277 22.1391 214.517 21.9926 214.729 21.829C214.945 21.6553 215.151 21.427 215.353 21.1442C215.555 20.8614 215.726 20.5309 215.866 20.1562C215.952 19.9517 216.027 19.7712 216.089 19.6144C216.158 19.4509 216.216 19.3044 216.26 19.1749C216.349 18.9194 216.312 18.7797 216.154 18.7559L216.144 18.7627Z" fill="white"/>
        <path d="M204.082 32.6566C204.021 32.6259 203.959 32.6055 203.904 32.5987C203.856 32.5987 203.805 32.626 203.75 32.6839L201.955 34.8916C201.918 34.9427 201.897 34.9768 201.897 34.9939C201.897 35.0177 201.918 35.0552 201.955 35.0961C202.271 35.2528 202.558 35.4197 202.815 35.5969C203.082 35.7775 203.353 35.9581 203.63 36.1352C203.661 36.1557 203.699 36.1693 203.736 36.1829C203.774 36.1965 203.822 36.1965 203.877 36.1829C203.932 36.1761 204 36.1557 204.079 36.1182C204.158 36.0807 204.247 36.0194 204.349 35.9308C204.514 35.8047 204.664 35.6685 204.798 35.5254C204.938 35.3857 205.079 35.2358 205.212 35.0722C205.377 34.8712 205.493 34.677 205.555 34.4862C205.627 34.2988 205.63 34.1148 205.565 33.9377C205.527 33.7878 205.455 33.6481 205.353 33.522C205.25 33.4028 205.134 33.2903 205 33.1813C204.866 33.0757 204.716 32.9769 204.551 32.8883C204.394 32.8065 204.236 32.7282 204.079 32.6532L204.082 32.6566Z" fill="white"/>
        <path d="M197.093 26.1628C197.699 25.4201 198.236 24.9465 198.723 24.8238C198.956 24.7659 199.123 24.8306 199.524 24.9056C200.154 25.0146 200.805 24.8238 201.483 24.34C202.164 23.8562 202.555 23.6075 202.651 23.5939C203.075 23.7404 203.462 23.7847 203.819 23.7268C204.007 23.7097 204.178 23.6416 204.336 23.5291C204.5 23.4099 204.647 23.2668 204.774 23.0965C204.908 22.9261 205.024 22.7353 205.127 22.5309C205.23 22.323 205.315 22.1152 205.387 21.9074C205.456 21.6996 205.51 21.4985 205.551 21.3043C205.589 21.1067 205.61 20.9398 205.61 20.7933C205.627 20.6059 205.586 20.5105 205.493 20.5105C205.404 20.5037 205.339 20.565 205.291 20.6911C205.206 20.8853 205.096 21.0284 204.962 21.1135C204.829 21.1953 204.685 21.2464 204.538 21.2669C204.394 21.2839 204.257 21.2805 204.123 21.2566C203.997 21.2294 203.897 21.2055 203.819 21.1817C203.565 21.0727 203.373 20.9057 203.24 20.6706C203.113 20.4321 203.069 20.1493 203.11 19.8223C203.11 19.778 203.086 19.7507 203.038 19.7371C203 19.7235 202.949 19.7541 202.884 19.8223L202.627 20.1323C201.894 21.1272 201.702 22.1118 202.048 23.0862C201.986 23.1748 201.894 23.2634 201.777 23.3486C201.658 23.4303 201.514 23.4849 201.339 23.5121C201.127 23.5428 200.825 23.4746 200.432 23.3111C200.086 23.1612 199.531 22.7217 198.661 23.2395C198.435 23.4167 198.082 23.6688 197.599 24.0027C197.13 24.3298 196.569 24.4048 195.925 24.4831C194.343 24.6739 193.774 24.1322 193.798 22.5854C193.822 20.8274 194.62 16.6673 194.815 15.6248C194.784 15.4408 194.541 15.1853 194.432 15.3215C194.267 15.6316 193.257 17.2397 193.13 17.8462C193.003 18.4492 192.89 19.0216 192.788 19.5599C192.695 20.0948 192.548 20.9841 192.353 22.2311C192.164 23.4746 192.069 24.2174 192.069 24.4559H192.082C192.082 25.294 192.305 26.0129 192.753 26.6159C193.202 27.2122 193.863 27.5154 194.736 27.5222C195.551 27.5222 196.339 27.0691 197.093 26.1628Z" fill="white"/>
        <path d="M193.89 44.8948H197.829V44.0771H194.842V42.3701H196.89V41.5627H194.842V39.9H197.829V39.0789H193.89V44.8948Z" fill="white"/>
        <path d="M203.476 39.8898H205.247V44.8948H206.199V39.8898H207.825V39.0789H203.476V39.8898Z" fill="white"/>
        <path d="M209.596 39.0789H208.64V44.8948H209.596V39.0789Z" fill="white"/>
        <path d="M219.257 39.0789H218.058L216.178 44.8948H217.202L217.586 43.6307H219.729L220.123 44.8948H221.137L219.257 39.0789ZM217.805 42.9119L218.654 40.1692L219.503 42.9119H217.805Z" fill="white"/>
        <path d="M214.438 43.1708L211.935 39.0789H211.024V44.8777H211.979L211.969 40.8029L214.473 44.8777H215.373V39.0789H214.428L214.438 43.1708Z" fill="white"/>
        <path d="M191.904 41.8932C192.469 41.6717 192.753 41.256 192.753 40.6496C192.753 40.1283 192.589 39.7365 192.264 39.4741C191.938 39.2118 191.469 39.0823 190.863 39.0823H188.736V44.8811H190.925C191.497 44.8811 191.959 44.7449 192.308 44.4723C192.658 44.1997 192.832 43.8011 192.832 43.2798C192.832 42.6052 192.524 42.1453 191.904 41.8966V41.8932ZM189.692 39.9H190.863C191.161 39.9 191.394 39.975 191.562 40.1249C191.736 40.2748 191.825 40.4792 191.825 40.7348C191.825 40.9903 191.736 41.1811 191.562 41.3276C191.394 41.4741 191.161 41.5456 190.87 41.5456H189.688V39.9H189.692ZM191.623 43.825C191.456 43.9817 191.219 44.06 190.925 44.06H189.692V42.319H190.918C191.216 42.319 191.449 42.3974 191.616 42.5541C191.791 42.704 191.88 42.9153 191.88 43.181C191.88 43.4468 191.795 43.6682 191.627 43.825H191.623Z" fill="white"/>
        <path d="M202.644 41.8761C202.87 41.5865 202.986 41.2322 202.986 40.8131C202.986 40.2918 202.825 39.8728 202.503 39.5593C202.182 39.2391 201.757 39.0789 201.226 39.0789H198.846V44.8948H199.801V42.5098H200.808L201.894 44.8948H202.908L201.736 42.4485C202.12 42.3497 202.425 42.1589 202.647 41.8727L202.644 41.8761ZM201.777 41.4911C201.603 41.6581 201.373 41.7432 201.086 41.7432H199.798V39.8898H201.086C201.37 39.8898 201.603 39.9784 201.777 40.1521C201.952 40.3191 202.041 40.5474 202.041 40.8301C202.041 41.1129 201.952 41.3242 201.777 41.4911Z" fill="white"/>
    </g>
    <path d="M2.01 47C1.73 47 1.525 46.925 1.395 46.775C1.265 46.625 1.2 46.39 1.2 46.07C1.2 45.74 1.265 45.51 1.395 45.38C1.525 45.24 1.73 45.17 2.01 45.17C2.29 45.17 2.49 45.24 2.61 45.38C2.74 45.51 2.805 45.74 2.805 46.07C2.805 46.39 2.74 46.625 2.61 46.775C2.49 46.925 2.29 47 2.01 47ZM6.47367 47C6.19367 47 5.98867 46.925 5.85867 46.775C5.72867 46.625 5.66367 46.39 5.66367 46.07C5.66367 45.74 5.72867 45.51 5.85867 45.38C5.98867 45.24 6.19367 45.17 6.47367 45.17C6.75367 45.17 6.95367 45.24 7.07367 45.38C7.20367 45.51 7.26867 45.74 7.26867 46.07C7.26867 46.39 7.20367 46.625 7.07367 46.775C6.95367 46.925 6.75367 47 6.47367 47ZM10.9373 47C10.6573 47 10.4523 46.925 10.3223 46.775C10.1923 46.625 10.1273 46.39 10.1273 46.07C10.1273 45.74 10.1923 45.51 10.3223 45.38C10.4523 45.24 10.6573 45.17 10.9373 45.17C11.2173 45.17 11.4173 45.24 11.5373 45.38C11.6673 45.51 11.7323 45.74 11.7323 46.07C11.7323 46.39 11.6673 46.625 11.5373 46.775C11.4173 46.925 11.2173 47 10.9373 47ZM17.801 45.725C18.171 45.725 18.461 45.65 18.671 45.5C18.881 45.34 18.986 45.125 18.986 44.855C18.986 44.775 18.966 44.67 18.926 44.54C18.896 44.4 18.856 44.26 18.806 44.12L17.321 39.92L18.461 39.395L20.216 44.45C20.326 44.77 20.441 45.02 20.561 45.2C20.681 45.38 20.821 45.515 20.981 45.605C21.151 45.685 21.356 45.725 21.596 45.725H21.911C21.951 45.725 21.986 45.77 22.016 45.86C22.046 45.95 22.061 46.125 22.061 46.385C22.061 46.645 22.046 46.815 22.016 46.895C21.986 46.965 21.951 47 21.911 47H21.551C21.091 47 20.711 46.925 20.411 46.775C20.111 46.615 19.871 46.375 19.691 46.055C19.531 46.375 19.296 46.615 18.986 46.775C18.676 46.925 18.281 47 17.801 47H14.291L14.186 45.725H17.801ZM26.3568 44.495C26.3568 45.285 26.1368 45.9 25.6968 46.34C25.2568 46.78 24.6618 47 23.9118 47H22.3518C22.3118 47 22.2768 46.96 22.2468 46.88C22.2168 46.8 22.2018 46.635 22.2018 46.385C22.2018 46.115 22.2168 45.94 22.2468 45.86C22.2768 45.77 22.3118 45.725 22.3518 45.725H23.9118C24.1518 45.725 24.3618 45.68 24.5418 45.59C24.7318 45.5 24.8768 45.365 24.9768 45.185C25.0768 45.005 25.1268 44.785 25.1268 44.525V42.185H26.3568V44.495ZM23.4768 50.09V48.905H25.5318V50.09H23.4768ZM21.5718 50.09V48.905H23.6268V50.09H21.5718ZM29.3666 37.295H30.6116V47H29.3666V37.295ZM34.0717 44.525C34.0717 44.135 34.1367 43.755 34.2667 43.385C34.3967 43.015 34.6067 42.625 34.8967 42.215C35.1867 41.795 35.5767 41.33 36.0667 40.82L35.4067 40.145L36.2767 39.23C37.2467 40.12 37.9817 40.855 38.4817 41.435C38.9917 42.005 39.3417 42.51 39.5317 42.95C39.7317 43.39 39.8317 43.855 39.8317 44.345C39.8317 44.885 39.7067 45.37 39.4567 45.8C39.2067 46.22 38.8567 46.55 38.4067 46.79C37.9567 47.03 37.4317 47.15 36.8317 47.15C35.9917 47.15 35.3217 46.92 34.8217 46.46C34.3217 45.99 34.0717 45.345 34.0717 44.525ZM38.5867 44.345C38.5867 44.055 38.5317 43.78 38.4217 43.52C38.3217 43.26 38.1517 42.98 37.9117 42.68C37.6717 42.37 37.3367 42.015 36.9067 41.615C36.5167 42.015 36.2067 42.375 35.9767 42.695C35.7467 43.015 35.5767 43.315 35.4667 43.595C35.3667 43.865 35.3167 44.15 35.3167 44.45C35.3167 44.89 35.4517 45.24 35.7217 45.5C36.0017 45.75 36.3867 45.875 36.8767 45.875C37.2167 45.875 37.5167 45.81 37.7767 45.68C38.0367 45.54 38.2367 45.36 38.3767 45.14C38.5167 44.91 38.5867 44.645 38.5867 44.345ZM45.8909 45.725C46.2609 45.725 46.5509 45.65 46.7609 45.5C46.9709 45.34 47.0759 45.125 47.0759 44.855C47.0759 44.775 47.0559 44.67 47.0159 44.54C46.9859 44.4 46.9459 44.26 46.8959 44.12L45.4109 39.92L46.5509 39.395L48.3059 44.45C48.4159 44.77 48.5309 45.02 48.6509 45.2C48.7709 45.38 48.9109 45.515 49.0709 45.605C49.2409 45.685 49.4459 45.725 49.6859 45.725H50.0009C50.0409 45.725 50.0759 45.77 50.1059 45.86C50.1359 45.95 50.1509 46.125 50.1509 46.385C50.1509 46.645 50.1359 46.815 50.1059 46.895C50.0759 46.965 50.0409 47 50.0009 47H49.6409C49.1809 47 48.8009 46.925 48.5009 46.775C48.2009 46.615 47.9609 46.375 47.7809 46.055C47.6209 46.375 47.3859 46.615 47.0759 46.775C46.7659 46.925 46.3709 47 45.8909 47H42.3809L42.2759 45.725H45.8909ZM51.6116 45.725C52.0616 45.725 52.4066 45.62 52.6466 45.41C52.8966 45.19 53.0216 44.895 53.0216 44.525V42.185H54.2516V44.525C54.2516 44.785 54.3016 45.005 54.4016 45.185C54.5016 45.355 54.6466 45.49 54.8366 45.59C55.0366 45.68 55.2916 45.725 55.6016 45.725C56.0516 45.725 56.3966 45.62 56.6366 45.41C56.8866 45.19 57.0116 44.895 57.0116 44.525V42.185H58.2416V44.525C58.2416 44.905 58.3466 45.2 58.5566 45.41C58.7766 45.62 59.0966 45.725 59.5166 45.725C59.9266 45.725 60.2416 45.62 60.4616 45.41C60.6916 45.2 60.8066 44.905 60.8066 44.525V42.185H62.0516V44.495C62.0516 45.275 61.8216 45.89 61.3616 46.34C60.9016 46.78 60.2866 47 59.5166 47C59.0066 47 58.5916 46.92 58.2716 46.76C57.9516 46.6 57.7166 46.37 57.5666 46.07C57.3866 46.37 57.1266 46.6 56.7866 46.76C56.4566 46.92 56.0616 47 55.6016 47C55.0516 47 54.6116 46.92 54.2816 46.76C53.9616 46.6 53.7266 46.37 53.5766 46.07C53.3966 46.37 53.1366 46.6 52.7966 46.76C52.4666 46.92 52.0716 47 51.6116 47H50.4416C50.4016 47 50.3666 46.96 50.3366 46.88C50.3066 46.8 50.2916 46.635 50.2916 46.385C50.2916 46.115 50.3066 45.94 50.3366 45.86C50.3666 45.77 50.4016 45.725 50.4416 45.725H51.6116ZM56.8916 38.315V37.115H58.2566V38.315H56.8916ZM57.5066 40.37V39.185H59.5616V40.37H57.5066ZM55.6016 40.37V39.185H57.6566V40.37H55.6016ZM76.9436 45.725C77.1836 45.725 77.3936 45.68 77.5736 45.59C77.7636 45.5 77.9086 45.375 78.0086 45.215C78.1086 45.045 78.1586 44.85 78.1586 44.63V42.185H79.3886V44.645C79.3886 45.125 79.2886 45.545 79.0886 45.905C78.8886 46.255 78.6036 46.525 78.2336 46.715C77.8636 46.905 77.4336 47 76.9436 47H71.5736C70.9836 47 70.4936 46.895 70.1036 46.685C69.7136 46.475 69.4186 46.175 69.2186 45.785C69.0186 45.395 68.9186 44.935 68.9186 44.405V42.185H70.1636V44.24C70.1636 44.55 70.2136 44.815 70.3136 45.035C70.4136 45.255 70.5736 45.425 70.7936 45.545C71.0136 45.665 71.2986 45.725 71.6486 45.725H76.9436ZM74.0636 40.625V39.44H76.1186V40.625H74.0636ZM72.1586 40.625V39.44H74.2136V40.625H72.1586ZM89.3242 45.725C89.3642 45.725 89.3992 45.77 89.4292 45.86C89.4592 45.94 89.4742 46.115 89.4742 46.385C89.4742 46.635 89.4592 46.8 89.4292 46.88C89.4092 46.96 89.3742 47 89.3242 47H87.7642V45.725H89.3242ZM87.9142 46.685C87.9142 47.465 87.7492 48.155 87.4192 48.755C87.0992 49.365 86.6442 49.835 86.0542 50.165C85.4742 50.495 84.7942 50.66 84.0142 50.66H82.1992L82.0792 49.385H84.0142C84.5542 49.385 85.0242 49.285 85.4242 49.085C85.8242 48.895 86.1292 48.625 86.3392 48.275C86.5592 47.925 86.6692 47.525 86.6692 47.075V47H85.2292C84.5692 47 84.0242 46.905 83.5942 46.715C83.1642 46.515 82.8392 46.22 82.6192 45.83C82.4092 45.44 82.3042 44.945 82.3042 44.345V44.27C82.3042 43.64 82.4192 43.08 82.6492 42.59C82.8892 42.1 83.2242 41.72 83.6542 41.45C84.0842 41.17 84.5692 41.03 85.1092 41.03C85.9792 41.03 86.6642 41.325 87.1642 41.915C87.6642 42.495 87.9142 43.305 87.9142 44.345V46.685ZM83.5342 44.27C83.5342 44.63 83.5892 44.915 83.6992 45.125C83.8092 45.335 83.9842 45.49 84.2242 45.59C84.4742 45.68 84.8092 45.725 85.2292 45.725H86.6692V44.345C86.6692 43.895 86.6042 43.515 86.4742 43.205C86.3542 42.895 86.1742 42.66 85.9342 42.5C85.6942 42.34 85.4042 42.26 85.0642 42.26C84.6042 42.26 84.2342 42.435 83.9542 42.785C83.6742 43.135 83.5342 43.605 83.5342 44.195V44.27ZM91.6755 45.725C91.4655 45.505 91.3105 45.255 91.2105 44.975C91.1105 44.695 91.0605 44.385 91.0605 44.045C91.0605 43.475 91.1805 42.965 91.4205 42.515C91.6705 42.055 92.0155 41.695 92.4555 41.435C92.8955 41.165 93.4005 41.03 93.9705 41.03C94.3505 41.03 94.7155 41.08 95.0655 41.18C95.4155 41.28 95.7805 41.445 96.1605 41.675L95.7405 42.695C95.4105 42.535 95.1005 42.425 94.8105 42.365C94.5305 42.295 94.2505 42.26 93.9705 42.26C93.6505 42.26 93.3605 42.335 93.1005 42.485C92.8505 42.635 92.6505 42.845 92.5005 43.115C92.3605 43.385 92.2905 43.695 92.2905 44.045C92.2905 44.375 92.3555 44.67 92.4855 44.93C92.6255 45.18 92.8155 45.375 93.0555 45.515C93.2955 45.655 93.5705 45.725 93.8805 45.725H96.5655L96.4455 47H89.7855C89.7455 47 89.7105 46.96 89.6805 46.88C89.6505 46.8 89.6355 46.635 89.6355 46.385C89.6355 46.115 89.6505 45.94 89.6805 45.86C89.7105 45.77 89.7455 45.725 89.7855 45.725H91.6755ZM102.239 39.455L105.119 42.755C105.439 43.135 105.669 43.485 105.809 43.805C105.949 44.125 106.019 44.455 106.019 44.795C106.019 45.455 105.794 45.99 105.344 46.4C104.894 46.8 104.264 47 103.454 47H99.1189L99.0139 45.725H103.454C103.884 45.725 104.214 45.64 104.444 45.47C104.674 45.29 104.789 45.06 104.789 44.78C104.789 44.6 104.739 44.415 104.639 44.225C104.549 44.035 104.394 43.81 104.174 43.55L101.354 40.325L102.239 39.455ZM122.832 47C122.392 47 122.032 46.925 121.752 46.775C121.472 46.625 121.257 46.395 121.107 46.085C120.927 46.385 120.642 46.615 120.252 46.775C119.872 46.925 119.432 47 118.932 47C118.322 47 117.812 46.9 117.402 46.7C116.992 46.5 116.682 46.2 116.472 45.8C116.262 45.4 116.157 44.905 116.157 44.315V43.625C116.157 43.315 116.197 43.045 116.277 42.815C116.357 42.585 116.492 42.385 116.682 42.215H115.992C115.602 42.215 115.267 42.285 114.987 42.425C114.717 42.565 114.507 42.765 114.357 43.025C114.217 43.285 114.147 43.6 114.147 43.97V50.6H112.902V43.97C112.902 43.38 113.032 42.865 113.292 42.425C113.552 41.985 113.922 41.645 114.402 41.405C114.882 41.155 115.437 41.03 116.067 41.03H119.187C119.737 41.03 120.202 41.125 120.582 41.315C120.972 41.505 121.262 41.78 121.452 42.14C121.652 42.5 121.752 42.935 121.752 43.445V44.45C121.752 44.88 121.842 45.2 122.022 45.41C122.202 45.62 122.472 45.725 122.832 45.725H123.177C123.217 45.725 123.252 45.77 123.282 45.86C123.312 45.94 123.327 46.115 123.327 46.385C123.327 46.635 123.312 46.8 123.282 46.88C123.252 46.96 123.217 47 123.177 47H122.832ZM118.932 45.725C119.282 45.725 119.572 45.675 119.802 45.575C120.042 45.465 120.222 45.31 120.342 45.11C120.462 44.9 120.522 44.645 120.522 44.345V43.52C120.522 43.26 120.467 43.03 120.357 42.83C120.257 42.63 120.102 42.48 119.892 42.38C119.692 42.27 119.457 42.215 119.187 42.215H118.692C118.422 42.215 118.187 42.27 117.987 42.38C117.797 42.48 117.647 42.635 117.537 42.845C117.437 43.045 117.387 43.28 117.387 43.55V44.285C117.387 44.595 117.447 44.86 117.567 45.08C117.687 45.29 117.862 45.45 118.092 45.56C118.322 45.67 118.602 45.725 118.932 45.725ZM127.717 45.695C128.257 45.455 128.662 45.18 128.932 44.87C129.202 44.55 129.337 44.19 129.337 43.79C129.337 43.32 129.187 42.95 128.887 42.68C128.597 42.4 128.212 42.26 127.732 42.26C127.262 42.26 126.877 42.4 126.577 42.68C126.277 42.95 126.127 43.32 126.127 43.79C126.127 44.2 126.257 44.56 126.517 44.87C126.777 45.18 127.177 45.455 127.717 45.695ZM125.962 45.725C125.662 45.505 125.417 45.215 125.227 44.855C125.037 44.495 124.942 44.125 124.942 43.745C124.942 43.225 125.062 42.76 125.302 42.35C125.552 41.93 125.892 41.605 126.322 41.375C126.762 41.145 127.247 41.03 127.777 41.03C128.297 41.03 128.767 41.145 129.187 41.375C129.607 41.605 129.937 41.925 130.177 42.335C130.417 42.735 130.537 43.19 130.537 43.7C130.537 44.08 130.437 44.45 130.237 44.81C130.037 45.17 129.757 45.475 129.397 45.725H131.392C131.822 45.725 132.152 45.64 132.382 45.47C132.612 45.29 132.727 45.06 132.727 44.78C132.727 44.59 132.677 44.395 132.577 44.195C132.477 43.995 132.307 43.765 132.067 43.505L129.112 40.325L129.997 39.41L133.012 42.71C133.342 43.07 133.582 43.42 133.732 43.76C133.882 44.1 133.957 44.445 133.957 44.795C133.957 45.235 133.852 45.625 133.642 45.965C133.442 46.295 133.147 46.55 132.757 46.73C132.377 46.91 131.922 47 131.392 47H129.892C129.242 47 128.767 46.985 128.467 46.955C128.177 46.925 127.942 46.86 127.762 46.76C127.582 46.85 127.322 46.915 126.982 46.955C126.652 46.985 126.167 47 125.527 47H123.622C123.582 47 123.547 46.96 123.517 46.88C123.487 46.8 123.472 46.635 123.472 46.385C123.472 46.115 123.487 45.94 123.517 45.86C123.547 45.77 123.582 45.725 123.622 45.725H125.962ZM143.704 45.725C143.744 45.725 143.779 45.77 143.809 45.86C143.839 45.94 143.854 46.115 143.854 46.385C143.854 46.645 143.839 46.815 143.809 46.895C143.779 46.965 143.744 47 143.704 47H143.314C142.804 47 142.374 46.9 142.024 46.7C141.684 46.49 141.424 46.19 141.244 45.8C141.074 45.41 140.989 44.935 140.989 44.375V37.295H142.234V44.315C142.234 44.785 142.329 45.14 142.519 45.38C142.709 45.61 142.994 45.725 143.374 45.725H143.704ZM152.606 45.725C152.646 45.725 152.681 45.77 152.711 45.86C152.741 45.94 152.756 46.115 152.756 46.385C152.756 46.635 152.741 46.8 152.711 46.88C152.681 46.96 152.646 47 152.606 47H152.231C151.801 47 151.446 46.925 151.166 46.775C150.886 46.615 150.676 46.37 150.536 46.04C150.336 46.35 150.046 46.59 149.666 46.76C149.286 46.92 148.856 47 148.376 47C147.856 47 147.421 46.92 147.071 46.76C146.721 46.6 146.456 46.365 146.276 46.055C146.106 46.385 145.881 46.625 145.601 46.775C145.321 46.925 144.951 47 144.491 47H144.146C144.106 47 144.071 46.96 144.041 46.88C144.011 46.8 143.996 46.635 143.996 46.385C143.996 46.115 144.011 45.94 144.041 45.86C144.071 45.77 144.106 45.725 144.146 45.725H144.491C144.851 45.725 145.121 45.645 145.301 45.485C145.481 45.325 145.571 45.08 145.571 44.75V44.12C145.571 43.15 145.821 42.395 146.321 41.855C146.831 41.305 147.531 41.03 148.421 41.03C149.311 41.03 149.996 41.29 150.476 41.81C150.956 42.32 151.196 43.065 151.196 44.045V44.51C151.196 44.93 151.281 45.24 151.451 45.44C151.631 45.63 151.891 45.725 152.231 45.725H152.606ZM148.376 42.26C147.846 42.26 147.451 42.41 147.191 42.71C146.931 43.01 146.801 43.465 146.801 44.075V44.15C146.801 44.65 146.936 45.04 147.206 45.32C147.486 45.59 147.876 45.725 148.376 45.725C148.896 45.725 149.286 45.59 149.546 45.32C149.816 45.05 149.951 44.65 149.951 44.12V44.045C149.951 43.445 149.821 43 149.561 42.71C149.311 42.41 148.916 42.26 148.376 42.26ZM154.233 45.725C154.683 45.725 155.028 45.62 155.268 45.41C155.518 45.19 155.643 44.895 155.643 44.525V42.185H156.873V44.525C156.873 44.785 156.923 45.005 157.023 45.185C157.123 45.355 157.268 45.49 157.458 45.59C157.658 45.68 157.913 45.725 158.223 45.725C158.673 45.725 159.018 45.62 159.258 45.41C159.508 45.19 159.633 44.895 159.633 44.525V42.185H160.863V44.525C160.863 44.905 160.968 45.2 161.178 45.41C161.398 45.62 161.718 45.725 162.138 45.725C162.548 45.725 162.863 45.62 163.083 45.41C163.313 45.2 163.428 44.905 163.428 44.525V42.185H164.673V44.495C164.673 45.275 164.443 45.89 163.983 46.34C163.523 46.78 162.908 47 162.138 47C161.628 47 161.213 46.92 160.893 46.76C160.573 46.6 160.338 46.37 160.188 46.07C160.008 46.37 159.748 46.6 159.408 46.76C159.078 46.92 158.683 47 158.223 47C157.673 47 157.233 46.92 156.903 46.76C156.583 46.6 156.348 46.37 156.198 46.07C156.018 46.37 155.758 46.6 155.418 46.76C155.088 46.92 154.693 47 154.233 47H153.063C153.023 47 152.988 46.96 152.958 46.88C152.928 46.8 152.913 46.635 152.913 46.385C152.913 46.115 152.928 45.94 152.958 45.86C152.988 45.77 153.023 45.725 153.063 45.725H154.233ZM159.513 38.315V37.115H160.878V38.315H159.513ZM160.128 40.37V39.185H162.183V40.37H160.128ZM158.223 40.37V39.185H160.278V40.37H158.223Z" fill="white"/>
    <path d="M11.3 8.825H13.7L8.175 19.175V25H6.05V19.175L0.5 8.825H2.9L6.25 15.075L7.05 16.75H7.175L7.975 15.075L11.3 8.825ZM18.627 23.35C19.727 23.35 20.5603 23.0583 21.127 22.475C21.6936 21.875 21.977 21.0083 21.977 19.875V18.55C21.977 17.4167 21.6936 16.5583 21.127 15.975C20.5603 15.375 19.727 15.075 18.627 15.075C17.527 15.075 16.6936 15.375 16.127 15.975C15.5603 16.5583 15.277 17.4167 15.277 18.55V19.875C15.277 21.0083 15.5603 21.875 16.127 22.475C16.6936 23.0583 17.527 23.35 18.627 23.35ZM13.127 18.625C13.127 16.9083 13.6103 15.5833 14.577 14.65C15.5436 13.7 16.8936 13.225 18.627 13.225C20.3603 13.225 21.7103 13.7 22.677 14.65C23.6436 15.5833 24.127 16.9083 24.127 18.625V19.8C24.127 21.5167 23.6436 22.85 22.677 23.8C21.7103 24.7333 20.3603 25.2 18.627 25.2C16.8936 25.2 15.5436 24.7333 14.577 23.8C13.6103 22.85 13.127 21.5167 13.127 19.8V18.625ZM35.2244 24.95L34.9244 22.275L35.4994 22.7C35.2827 23.5 34.8244 24.1083 34.1244 24.525C33.4244 24.9417 32.5411 25.15 31.4744 25.15C29.9577 25.15 28.8327 24.725 28.0994 23.875C27.3827 23.025 27.0244 21.75 27.0244 20.05V13.375H29.1744V20.125C29.1744 21.2917 29.3744 22.125 29.7744 22.625C30.1911 23.125 30.8827 23.375 31.8494 23.375C32.7994 23.375 33.5244 23.15 34.0244 22.7C34.5244 22.2333 34.7744 21.5583 34.7744 20.675V13.375H36.8994V24.95H35.2244ZM42.316 8.675C42.7993 8.675 43.141 8.8 43.341 9.05C43.5577 9.3 43.666 9.74167 43.666 10.375C43.666 11.7917 43.5993 12.8 43.466 13.4C43.3493 14 43.116 14.4167 42.766 14.65C42.416 14.8833 41.8243 15.0833 40.991 15.25V13.875C41.441 13.775 41.7577 13.675 41.941 13.575C42.1243 13.475 42.241 13.3 42.291 13.05C42.341 12.7833 42.366 12.3417 42.366 11.725C41.866 11.725 41.5077 11.6167 41.291 11.4C41.091 11.1667 40.991 10.775 40.991 10.225C40.991 9.69167 41.091 9.3 41.291 9.05C41.5077 8.8 41.8493 8.675 42.316 8.675ZM49.4043 15.975C49.721 15.0583 50.1876 14.375 50.8043 13.925C51.421 13.4583 52.1626 13.225 53.0293 13.225H54.4043L54.2043 15.15H52.8793C52.296 15.15 51.7876 15.2833 51.3543 15.55C50.9376 15.8 50.6126 16.1667 50.3793 16.65C50.1626 17.1333 50.0543 17.7083 50.0543 18.375V25H47.9043V13.425H49.6043L49.9043 16.1L49.4043 15.975ZM55.876 18.6C55.876 16.8667 56.326 15.5417 57.226 14.625C58.1426 13.6917 59.4426 13.225 61.126 13.225C62.8426 13.225 64.1426 13.6833 65.026 14.6C65.926 15.5167 66.376 16.85 66.376 18.6V20.175H57.426V18.7H64.226V18.375C64.226 17.2583 63.976 16.4167 63.476 15.85C62.9926 15.2833 62.2093 15 61.126 15C60.0426 15 59.251 15.2917 58.751 15.875C58.2676 16.4417 58.026 17.325 58.026 18.525V20.2C58.026 20.9 58.1426 21.4833 58.376 21.95C58.6093 22.4167 58.9593 22.7667 59.426 23C59.9093 23.2333 60.526 23.35 61.276 23.35C62.0426 23.35 62.8176 23.3083 63.601 23.225C64.401 23.1417 65.1593 23.025 65.876 22.875L66.126 24.625C65.1926 24.825 64.326 24.9667 63.526 25.05C62.726 25.15 61.976 25.2 61.276 25.2C60.1093 25.2 59.126 25 58.326 24.6C57.526 24.2 56.9176 23.625 56.501 22.875C56.0843 22.1083 55.876 21.1917 55.876 20.125V18.6ZM78.4723 13.425V25H76.3223V13.425H78.4723ZM78.5723 8.25V10.4H76.2223V8.25H78.5723ZM83.8572 13.425L84.1572 16.1L83.5822 15.675C83.7989 14.875 84.2572 14.2667 84.9572 13.85C85.6572 13.4333 86.5322 13.225 87.5822 13.225C89.1156 13.225 90.2406 13.65 90.9572 14.5C91.6739 15.35 92.0322 16.625 92.0322 18.325V25H89.9072V18.25C89.9072 17.0833 89.6989 16.25 89.2822 15.75C88.8656 15.25 88.1822 15 87.2322 15C86.2656 15 85.5322 15.2333 85.0322 15.7C84.5489 16.15 84.3072 16.8167 84.3072 17.7V25H82.1572V13.425H83.8572ZM98.7303 21L99.3803 23.025H99.5803L100.155 21L102.605 13.425H104.83L101.005 25H97.8553L94.0303 13.425H96.2553L98.7303 21ZM109.307 13.425V25H107.157V13.425H109.307ZM109.407 8.25V10.4H107.057V8.25H109.407ZM119.178 13.425V15.125H112.103V13.425H119.178ZM116.428 10.4V21.625C116.428 22.225 116.553 22.6583 116.803 22.925C117.053 23.175 117.453 23.3 118.003 23.3H119.178L118.978 25H117.778C117.011 25 116.369 24.875 115.853 24.625C115.336 24.3583 114.944 23.9667 114.678 23.45C114.428 22.9167 114.303 22.2583 114.303 21.475V10.4H116.428ZM121.477 18.6C121.477 16.8667 121.927 15.5417 122.827 14.625C123.743 13.6917 125.043 13.225 126.727 13.225C128.443 13.225 129.743 13.6833 130.627 14.6C131.527 15.5167 131.977 16.85 131.977 18.6V20.175H123.027V18.7H129.827V18.375C129.827 17.2583 129.577 16.4167 129.077 15.85C128.593 15.2833 127.81 15 126.727 15C125.643 15 124.852 15.2917 124.352 15.875C123.868 16.4417 123.627 17.325 123.627 18.525V20.2C123.627 20.9 123.743 21.4833 123.977 21.95C124.21 22.4167 124.56 22.7667 125.027 23C125.51 23.2333 126.127 23.35 126.877 23.35C127.643 23.35 128.418 23.3083 129.202 23.225C130.002 23.1417 130.76 23.025 131.477 22.875L131.727 24.625C130.793 24.825 129.927 24.9667 129.127 25.05C128.327 25.15 127.577 25.2 126.877 25.2C125.71 25.2 124.727 25 123.927 24.6C123.127 24.2 122.518 23.625 122.102 22.875C121.685 22.1083 121.477 21.1917 121.477 20.125V18.6ZM143.204 17.7C143.204 16.85 142.938 16.1917 142.404 15.725C141.871 15.2417 141.104 15 140.104 15C139.388 15 138.804 15.1167 138.354 15.35C137.904 15.5833 137.571 15.9417 137.354 16.425C137.154 16.9083 137.054 17.5333 137.054 18.3V20.125C137.054 20.8917 137.154 21.525 137.354 22.025C137.571 22.5083 137.904 22.8667 138.354 23.1C138.804 23.3167 139.388 23.425 140.104 23.425C141.104 23.425 141.871 23.1917 142.404 22.725C142.938 22.2417 143.204 21.575 143.204 20.725V17.7ZM145.329 8.25V25H143.654L143.354 22.325L143.929 22.75C143.713 23.5333 143.229 24.1417 142.479 24.575C141.746 24.9917 140.829 25.2 139.729 25.2C138.663 25.2 137.771 25.0083 137.054 24.625C136.354 24.2417 135.821 23.6667 135.454 22.9C135.088 22.1333 134.904 21.1833 134.904 20.05V18.375C134.904 17.2417 135.088 16.3 135.454 15.55C135.821 14.7833 136.354 14.2083 137.054 13.825C137.771 13.425 138.663 13.225 139.729 13.225C140.829 13.225 141.746 13.4417 142.479 13.875C143.229 14.2917 143.713 14.8917 143.929 15.675L143.204 15.95V8.25H145.329ZM150.957 25C150.491 25 150.149 24.875 149.932 24.625C149.716 24.375 149.607 23.9833 149.607 23.45C149.607 22.9 149.716 22.5167 149.932 22.3C150.149 22.0667 150.491 21.95 150.957 21.95C151.424 21.95 151.757 22.0667 151.957 22.3C152.174 22.5167 152.282 22.9 152.282 23.45C152.282 23.9833 152.174 24.375 151.957 24.625C151.757 24.875 151.424 25 150.957 25ZM157.647 25C157.18 25 156.839 24.875 156.622 24.625C156.405 24.375 156.297 23.9833 156.297 23.45C156.297 22.9 156.405 22.5167 156.622 22.3C156.839 22.0667 157.18 21.95 157.647 21.95C158.114 21.95 158.447 22.0667 158.647 22.3C158.864 22.5167 158.972 22.9 158.972 23.45C158.972 23.9833 158.864 24.375 158.647 24.625C158.447 24.875 158.114 25 157.647 25ZM164.336 25C163.87 25 163.528 24.875 163.311 24.625C163.095 24.375 162.986 23.9833 162.986 23.45C162.986 22.9 163.095 22.5167 163.311 22.3C163.528 22.0667 163.87 21.95 164.336 21.95C164.803 21.95 165.136 22.0667 165.336 22.3C165.553 22.5167 165.661 22.9 165.661 23.45C165.661 23.9833 165.553 24.375 165.336 24.625C165.136 24.875 164.803 25 164.336 25Z" fill="white"/>
    <defs>
        <clipPath id="clip0_0_1">
            <rect width="58" height="59" fill="white" transform="translate(176)"/>
        </clipPath>
    </defs>
</svg>
