<?xml version="1.0" encoding="iso-8859-1"?>
<!-- Uploaded to: SVG Repo, www.svgrepo.com, Generator: SVG Repo Mixer Tools -->
<svg version="1.1" id="Layer_1" xmlns="http://www.w3.org/2000/svg" xmlns:xlink="http://www.w3.org/1999/xlink" 
	 viewBox="0 0 512 512" xml:space="preserve">
<path style="fill:#CEE8FA;" d="M419.205,14.696H92.796c-7.641,0-13.835,6.194-13.835,13.835v100.521
	c0,7.641,6.194,13.835,13.835,13.835H219.91l36.091,47.813l36.091-47.813h127.114c7.641,0,13.835-6.194,13.835-13.835V28.531
	C433.04,20.891,426.846,14.696,419.205,14.696z"/>
<path style="fill:#2D527C;" d="M256,205.397c-4.61,0-8.953-2.163-11.729-5.843l-31.681-41.971H92.796
	c-15.731,0-28.53-12.799-28.53-28.53V28.531C64.266,12.799,77.065,0,92.796,0h326.411c15.731,0,28.53,12.799,28.53,28.531v100.521
	c0,15.731-12.799,28.53-28.53,28.53H299.411l-31.681,41.971C264.953,203.234,260.61,205.397,256,205.397z M93.659,128.191H219.91
	c4.61,0,8.953,2.163,11.729,5.843L256,166.308l24.361-32.273c2.778-3.68,7.12-5.843,11.729-5.843h126.251V29.393H93.659V128.191z"/>
<rect x="67.883" y="324.421" style="fill:#CEE8FA;" width="376.225" height="87.267"/>
<g>
	<path style="fill:#2D527C;" d="M444.113,426.388H67.887c-8.115,0-14.696-6.581-14.696-14.696v-87.268
		c0-8.115,6.581-14.696,14.696-14.696h376.225c8.115,0,14.696,6.581,14.696,14.696v87.268
		C458.809,419.807,452.229,426.388,444.113,426.388z M82.584,396.996h346.833V339.12H82.584L82.584,396.996L82.584,396.996z"/>
	<path style="fill:#2D527C;" d="M444.113,512c-8.115,0-14.696-6.581-14.696-14.696v-72.572H82.584v57.876h266.983
		c8.115,0,14.696,6.581,14.696,14.696S357.682,512,349.567,512H67.887c-8.115,0-14.696-6.581-14.696-14.696v-87.268
		c0-8.115,6.581-14.696,14.696-14.696h376.225c8.115,0,14.696,6.581,14.696,14.696v87.268C458.809,505.419,452.229,512,444.113,512z
		"/>
	<path style="fill:#2D527C;" d="M444.113,339.12H67.887c-8.115,0-14.696-6.581-14.696-14.696v-87.268
		c0-8.115,6.581-14.696,14.696-14.696h150.392c8.115,0,14.696,6.581,14.696,14.696s-6.581,14.696-14.696,14.696H82.584v57.875
		h346.833v-57.875H293.721c-8.115,0-14.696-6.581-14.696-14.696s6.581-14.696,14.696-14.696h150.392
		c8.115,0,14.696,6.581,14.696,14.696v87.268C458.809,332.539,452.229,339.12,444.113,339.12z"/>
</g>
</svg>